M48
; DRILL file {KiCad 9.0.5} date 2026-03-30T21:36:02-0700
; FORMAT={-:-/ absolute / inch / decimal}
; #@! TF.CreationDate,2026-03-30T21:36:02-07:00
; #@! TF.GenerationSoftware,Kicad,Pcbnew,9.0.5
; #@! TF.FileFunction,NonPlated,1,2,NPTH
FMAT,2
INCH
; #@! TA.AperFunction,NonPlated,NPTH,ComponentDrill
T1C0.0610
; #@! TA.AperFunction,NonPlated,NPTH,ComponentDrill
T2C0.0787
; #@! TA.AperFunction,NonPlated,NPTH,ComponentDrill
T3C0.1024
; #@! TA.AperFunction,NonPlated,NPTH,ComponentDrill
T4C0.1575
%
G90
G05
T1
X0.7301Y-1.9045
X0.7301Y-4.0305
X0.8187Y-2.6132
X0.9959Y-3.3219
X1.0844Y-1.1959
X1.1301Y-1.9045
X1.1301Y-4.0305
X1.2187Y-2.6132
X1.3959Y-3.3219
X1.4388Y-1.9045
X1.4388Y-4.0305
X1.4844Y-1.1959
X1.6159Y-2.6132
X1.7931Y-1.1959
X1.8388Y-1.9045
X1.8388Y-4.0305
X1.9703Y-3.3219
X2.0159Y-2.6132
X2.1474Y-1.9045
X2.1474Y-4.0305
X2.1931Y-1.1959
X2.3246Y-2.6132
X2.3703Y-3.3219
X2.5018Y-1.1959
X2.5474Y-1.9045
X2.5474Y-4.0305
X2.6789Y-3.3219
X2.7246Y-2.6132
X2.8561Y-1.9045
X2.8561Y-4.0305
X2.9018Y-1.1959
X3.0333Y-2.6132
X3.0789Y-3.3219
X3.2104Y-1.1959
X3.2561Y-1.9045
X3.2561Y-4.0305
X3.3876Y-3.3219
X3.4333Y-2.6132
X3.5648Y-1.9045
X3.6104Y-1.1959
X3.7419Y-2.6132
X3.7876Y-3.3219
X3.9191Y-1.1959
X3.9648Y-1.9045
X4.0963Y-3.3219
X4.1419Y-2.6132
X4.2734Y-1.9045
X4.3191Y-1.1959
X4.4506Y-2.6132
X4.4963Y-3.3219
X4.6278Y-1.1959
X4.6734Y-1.9045
X4.8049Y-3.3219
X4.8506Y-2.6132
X4.9821Y-1.9045
X4.9821Y-4.0305
X5.0278Y-1.1959
X5.1593Y-2.6132
X5.2049Y-3.3219
X5.3821Y-1.9045
X5.3821Y-4.0305
X5.5136Y-3.3219
X5.5593Y-2.6132
X5.6907Y-1.9045
X5.8679Y-2.6132
X5.9136Y-3.3219
X6.0907Y-1.9045
X6.2222Y-3.3219
X6.2679Y-2.6132
X6.3994Y-1.9045
X6.5766Y-2.6132
X6.6222Y-3.3219
X6.7994Y-1.9045
X6.9309Y-3.3219
X6.9766Y-2.6132
X7.1081Y-1.9045
X7.1081Y-4.0305
X7.2852Y-2.6132
X7.3309Y-3.3219
X7.5081Y-1.9045
X7.5081Y-4.0305
X7.6396Y-3.3219
X7.6852Y-2.6132
X7.8167Y-1.9045
X7.8167Y-4.0305
X8.0396Y-3.3219
X8.2167Y-1.9045
X8.2167Y-4.0305
X8.2596Y-2.6132
X8.4368Y-3.3219
X8.5254Y-1.9045
X8.5254Y-4.0305
X8.6596Y-2.6132
X8.8368Y-3.3219
X8.9254Y-1.9045
X8.9254Y-4.0305
T2
X0.7825Y-3.2152
X1.6093Y-3.2152
X3.6073Y-3.9238
X6.7569Y-3.9238
X8.0463Y-2.5065
X8.873Y-2.5065
T3
X0.9301Y-1.9045
X0.9301Y-4.0305
X1.0187Y-2.6132
X1.1959Y-3.3219
X1.2844Y-1.1959
X1.6388Y-1.9045
X1.6388Y-4.0305
X1.8159Y-2.6132
X1.9931Y-1.1959
X2.1703Y-3.3219
X2.3474Y-1.9045
X2.3474Y-4.0305
X2.5246Y-2.6132
X2.7018Y-1.1959
X2.8789Y-3.3219
X3.0561Y-1.9045
X3.0561Y-4.0305
X3.2333Y-2.6132
X3.4104Y-1.1959
X3.5876Y-3.3219
X3.7648Y-1.9045
X3.9419Y-2.6132
X4.1191Y-1.1959
X4.2963Y-3.3219
X4.4734Y-1.9045
X4.6506Y-2.6132
X4.8278Y-1.1959
X5.0049Y-3.3219
X5.1821Y-1.9045
X5.1821Y-4.0305
X5.3593Y-2.6132
X5.7136Y-3.3219
X5.8907Y-1.9045
X6.0679Y-2.6132
X6.4222Y-3.3219
X6.5994Y-1.9045
X6.7766Y-2.6132
X7.1309Y-3.3219
X7.3081Y-1.9045
X7.3081Y-4.0305
X7.4852Y-2.6132
X7.8396Y-3.3219
X8.0167Y-1.9045
X8.0167Y-4.0305
X8.4596Y-2.6132
X8.6368Y-3.3219
X8.7254Y-1.9045
X8.7254Y-4.0305
T4
X0.7825Y-3.5498
X1.6093Y-3.5498
X3.6073Y-4.2585
X6.7569Y-4.2585
X8.0463Y-2.8411
X8.873Y-2.8411
M30
