%TF.GenerationSoftware,KiCad,Pcbnew,9.0.5*%
%TF.CreationDate,2026-03-30T21:36:02-07:00*%
%TF.ProjectId,MXLP V4N,4d584c50-2056-4344-9e2e-6b696361645f,0.1*%
%TF.SameCoordinates,Original*%
%TF.FileFunction,Legend,Bot*%
%TF.FilePolarity,Positive*%
%FSLAX46Y46*%
G04 Gerber Fmt 4.6, Leading zero omitted, Abs format (unit mm)*
G04 Created by KiCad (PCBNEW 9.0.5) date 2026-03-30 21:36:02*
%MOMM*%
%LPD*%
G01*
G04 APERTURE LIST*
G04 Aperture macros list*
%AMRoundRect*
0 Rectangle with rounded corners*
0 $1 Rounding radius*
0 $2 $3 $4 $5 $6 $7 $8 $9 X,Y pos of 4 corners*
0 Add a 4 corners polygon primitive as box body*
4,1,4,$2,$3,$4,$5,$6,$7,$8,$9,$2,$3,0*
0 Add four circle primitives for the rounded corners*
1,1,$1+$1,$2,$3*
1,1,$1+$1,$4,$5*
1,1,$1+$1,$6,$7*
1,1,$1+$1,$8,$9*
0 Add four rect primitives between the rounded corners*
20,1,$1+$1,$2,$3,$4,$5,0*
20,1,$1+$1,$4,$5,$6,$7,0*
20,1,$1+$1,$6,$7,$8,$9,0*
20,1,$1+$1,$8,$9,$2,$3,0*%
G04 Aperture macros list end*
%ADD10C,0.200000*%
%ADD11C,0.100000*%
%ADD12C,0.187500*%
%ADD13C,0.120000*%
%ADD14C,0.152400*%
%ADD15C,0.000000*%
%ADD16C,0.150000*%
%ADD17C,4.000000*%
%ADD18C,1.550000*%
%ADD19C,2.600000*%
%ADD20C,2.500000*%
%ADD21C,2.000000*%
%ADD22RoundRect,0.225000X-0.250000X0.225000X-0.250000X-0.225000X0.250000X-0.225000X0.250000X0.225000X0*%
%ADD23RoundRect,0.218750X-0.256250X0.218750X-0.256250X-0.218750X0.256250X-0.218750X0.256250X0.218750X0*%
%ADD24RoundRect,0.225000X0.225000X0.250000X-0.225000X0.250000X-0.225000X-0.250000X0.225000X-0.250000X0*%
%ADD25R,1.803400X1.092200*%
%ADD26RoundRect,0.225000X0.250000X-0.225000X0.250000X0.225000X-0.250000X0.225000X-0.250000X-0.225000X0*%
%ADD27RoundRect,0.075000X0.075000X-0.662500X0.075000X0.662500X-0.075000X0.662500X-0.075000X-0.662500X0*%
%ADD28RoundRect,0.075000X0.662500X-0.075000X0.662500X0.075000X-0.662500X0.075000X-0.662500X-0.075000X0*%
%ADD29RoundRect,0.225000X-0.225000X-0.250000X0.225000X-0.250000X0.225000X0.250000X-0.225000X0.250000X0*%
%ADD30RoundRect,0.150000X-0.512500X-0.150000X0.512500X-0.150000X0.512500X0.150000X-0.512500X0.150000X0*%
%ADD31R,1.800000X1.200000*%
%ADD32R,1.550000X0.600000*%
%ADD33RoundRect,0.150000X0.512500X0.150000X-0.512500X0.150000X-0.512500X-0.150000X0.512500X-0.150000X0*%
%ADD34RoundRect,0.200000X0.275000X-0.200000X0.275000X0.200000X-0.275000X0.200000X-0.275000X-0.200000X0*%
G04 APERTURE END LIST*
D10*
G36*
X224079656Y-93954002D02*
G01*
X224116471Y-93962369D01*
X224145234Y-93974769D01*
X224168848Y-93991318D01*
X224200536Y-94034256D01*
X224214506Y-94092363D01*
X224215073Y-94108668D01*
X224215073Y-95387554D01*
X224212107Y-95423718D01*
X224203067Y-95456039D01*
X224189776Y-95481157D01*
X224171379Y-95502574D01*
X224149080Y-95519180D01*
X224121929Y-95531904D01*
X224050674Y-95544717D01*
X224036562Y-95545000D01*
X223564043Y-95545000D01*
X223481582Y-95542095D01*
X223402812Y-95533486D01*
X223328985Y-95519589D01*
X223258975Y-95500466D01*
X223193804Y-95476643D01*
X223132569Y-95448029D01*
X223075988Y-95415160D01*
X223023475Y-95377885D01*
X222975419Y-95336608D01*
X222931597Y-95291254D01*
X222857079Y-95188857D01*
X222800485Y-95071018D01*
X222762890Y-94937851D01*
X222745862Y-94789484D01*
X222745036Y-94747058D01*
X223102058Y-94747058D01*
X223104976Y-94813680D01*
X223113674Y-94876177D01*
X223127319Y-94931866D01*
X223146101Y-94983402D01*
X223168877Y-95028753D01*
X223196251Y-95069946D01*
X223227145Y-95105781D01*
X223262253Y-95137396D01*
X223301014Y-95164334D01*
X223343774Y-95186861D01*
X223441827Y-95218252D01*
X223558228Y-95229994D01*
X223564043Y-95230018D01*
X223879025Y-95230018D01*
X223879025Y-94266205D01*
X223564043Y-94266205D01*
X223501127Y-94269108D01*
X223442544Y-94277703D01*
X223390146Y-94291248D01*
X223341914Y-94309792D01*
X223298942Y-94332549D01*
X223260048Y-94359775D01*
X223195196Y-94426434D01*
X223146596Y-94510039D01*
X223114896Y-94611886D01*
X223102172Y-94733591D01*
X223102058Y-94747058D01*
X222745036Y-94747058D01*
X222747946Y-94668038D01*
X222756593Y-94592280D01*
X222770559Y-94521148D01*
X222789827Y-94453466D01*
X222813850Y-94390368D01*
X222842780Y-94330896D01*
X222876053Y-94275860D01*
X222913891Y-94224636D01*
X222955864Y-94177685D01*
X223002122Y-94134757D01*
X223106968Y-94061562D01*
X223228348Y-94005776D01*
X223366415Y-93968642D01*
X223521335Y-93951893D01*
X223564043Y-93951132D01*
X224036562Y-93951132D01*
X224079656Y-93954002D01*
G37*
G36*
X222085806Y-94350963D02*
G01*
X222150366Y-94359366D01*
X222209692Y-94372840D01*
X222264322Y-94391102D01*
X222314278Y-94413826D01*
X222359583Y-94440685D01*
X222434359Y-94503426D01*
X222473317Y-94554014D01*
X222500797Y-94609391D01*
X222509098Y-94642110D01*
X222512028Y-94677724D01*
X222509203Y-94708764D01*
X222501149Y-94736037D01*
X222471372Y-94779602D01*
X222425224Y-94808201D01*
X222367131Y-94818499D01*
X222334993Y-94815653D01*
X222306478Y-94807456D01*
X222260940Y-94777147D01*
X222249528Y-94763819D01*
X222232614Y-94740171D01*
X222203367Y-94700896D01*
X222152458Y-94654578D01*
X222088585Y-94626802D01*
X222041617Y-94621029D01*
X221994082Y-94623971D01*
X221954614Y-94632839D01*
X221927006Y-94645113D01*
X221904607Y-94661773D01*
X221875506Y-94705263D01*
X221861476Y-94769664D01*
X221860999Y-94776459D01*
X222226448Y-94873087D01*
X222297872Y-94895062D01*
X222360029Y-94920331D01*
X222410736Y-94947120D01*
X222453912Y-94976532D01*
X222488697Y-95007160D01*
X222517196Y-95039927D01*
X222556456Y-95110728D01*
X222575216Y-95191180D01*
X222577150Y-95230018D01*
X222574222Y-95279492D01*
X222565448Y-95326171D01*
X222551629Y-95367831D01*
X222532508Y-95406343D01*
X222509057Y-95440232D01*
X222480702Y-95470658D01*
X222448037Y-95496957D01*
X222410650Y-95519402D01*
X222321255Y-95551857D01*
X222210415Y-95565783D01*
X222190727Y-95566065D01*
X222133495Y-95563166D01*
X222078862Y-95554597D01*
X222027477Y-95540678D01*
X221979155Y-95521551D01*
X221934466Y-95497600D01*
X221893286Y-95468883D01*
X221842131Y-95421168D01*
X221824697Y-95455639D01*
X221801560Y-95486883D01*
X221775526Y-95511600D01*
X221744312Y-95532428D01*
X221709802Y-95548001D01*
X221670211Y-95559053D01*
X221596393Y-95566065D01*
X221545538Y-95563143D01*
X221500170Y-95554410D01*
X221464111Y-95541499D01*
X221433255Y-95523883D01*
X221409860Y-95503679D01*
X221391340Y-95479599D01*
X221378397Y-95452907D01*
X221370380Y-95422707D01*
X221367506Y-95387554D01*
X221370307Y-95357332D01*
X221378186Y-95331529D01*
X221406512Y-95292928D01*
X221447976Y-95272446D01*
X221470455Y-95269952D01*
X221497789Y-95272340D01*
X221516617Y-95274165D01*
X221531515Y-95271296D01*
X221541346Y-95262938D01*
X221546017Y-95244764D01*
X221546017Y-95120841D01*
X221860999Y-95120841D01*
X221898097Y-95190157D01*
X221953659Y-95247718D01*
X222024939Y-95290093D01*
X222104645Y-95311998D01*
X222136139Y-95314007D01*
X222168917Y-95310934D01*
X222199026Y-95301147D01*
X222219931Y-95287714D01*
X222236452Y-95268864D01*
X222246288Y-95247869D01*
X222251211Y-95222200D01*
X222251635Y-95211150D01*
X222248602Y-95187927D01*
X222239095Y-95166595D01*
X222203304Y-95133452D01*
X222146580Y-95110308D01*
X221860999Y-95030532D01*
X221860999Y-95120841D01*
X221546017Y-95120841D01*
X221546017Y-94831047D01*
X221549024Y-94756522D01*
X221558344Y-94686712D01*
X221572088Y-94629688D01*
X221591352Y-94576978D01*
X221613732Y-94533374D01*
X221641083Y-94493777D01*
X221671348Y-94460589D01*
X221706339Y-94431300D01*
X221745079Y-94406734D01*
X221788633Y-94386212D01*
X221891739Y-94357855D01*
X222016429Y-94348087D01*
X222085806Y-94350963D01*
G37*
G36*
X220719683Y-95566065D02*
G01*
X220642744Y-95563114D01*
X220570074Y-95554178D01*
X220507105Y-95540459D01*
X220448770Y-95521406D01*
X220399561Y-95499061D01*
X220355045Y-95472034D01*
X220318230Y-95442679D01*
X220286070Y-95409160D01*
X220260117Y-95373436D01*
X220238873Y-95333853D01*
X220222894Y-95291368D01*
X220211890Y-95245094D01*
X220205216Y-95164988D01*
X220208144Y-95113810D01*
X220216919Y-95067349D01*
X220230299Y-95028213D01*
X220248702Y-94992790D01*
X220299192Y-94933562D01*
X220371685Y-94885085D01*
X220473911Y-94845571D01*
X220597867Y-94818499D01*
X220637800Y-94812179D01*
X220639815Y-94811866D01*
X220758930Y-94792222D01*
X220838238Y-94772106D01*
X220864421Y-94759561D01*
X220882402Y-94744128D01*
X220892763Y-94724880D01*
X220896087Y-94700896D01*
X220893223Y-94678376D01*
X220884899Y-94658699D01*
X220853262Y-94627735D01*
X220797786Y-94606738D01*
X220728109Y-94600054D01*
X220654708Y-94610676D01*
X220597867Y-94631562D01*
X220542169Y-94667437D01*
X220509665Y-94700896D01*
X220490404Y-94721582D01*
X220466801Y-94737872D01*
X220440247Y-94748803D01*
X220409947Y-94754637D01*
X220392062Y-94755484D01*
X220360400Y-94752566D01*
X220330581Y-94743862D01*
X220304758Y-94730174D01*
X220282576Y-94711315D01*
X220266118Y-94689312D01*
X220254354Y-94662989D01*
X220247165Y-94614801D01*
X220258448Y-94553900D01*
X220292112Y-94497666D01*
X220351021Y-94444636D01*
X220387940Y-94421543D01*
X220486851Y-94381165D01*
X220613774Y-94354115D01*
X220707135Y-94348087D01*
X220782838Y-94351014D01*
X220854425Y-94359778D01*
X220918045Y-94373472D01*
X220976970Y-94392379D01*
X221027424Y-94414772D01*
X221072953Y-94441694D01*
X221110675Y-94470909D01*
X221143436Y-94504044D01*
X221169570Y-94538983D01*
X221190706Y-94577404D01*
X221206167Y-94617960D01*
X221216430Y-94661766D01*
X221221602Y-94726084D01*
X221218649Y-94777056D01*
X221209702Y-94823780D01*
X221196134Y-94862960D01*
X221177324Y-94898774D01*
X221125673Y-94958867D01*
X221051267Y-95008449D01*
X220946426Y-95048992D01*
X220818418Y-95076786D01*
X220778484Y-95083014D01*
X220642340Y-95108763D01*
X220595618Y-95123782D01*
X220562085Y-95142109D01*
X220545622Y-95158206D01*
X220535341Y-95177300D01*
X220530730Y-95206937D01*
X220533612Y-95230801D01*
X220542061Y-95251505D01*
X220573570Y-95283035D01*
X220628871Y-95304305D01*
X220709150Y-95311992D01*
X220769701Y-95309199D01*
X220822003Y-95301370D01*
X220889767Y-95280484D01*
X220946193Y-95245638D01*
X220980076Y-95211150D01*
X220999247Y-95190515D01*
X221022729Y-95174268D01*
X221049236Y-95163312D01*
X221079459Y-95157441D01*
X221097679Y-95156562D01*
X221129370Y-95159481D01*
X221159214Y-95168190D01*
X221185032Y-95181878D01*
X221207208Y-95200738D01*
X221223649Y-95222739D01*
X221235400Y-95249064D01*
X221242576Y-95297246D01*
X221239684Y-95328622D01*
X221231159Y-95358556D01*
X221197135Y-95414817D01*
X221138144Y-95466502D01*
X221116547Y-95479970D01*
X221021502Y-95522626D01*
X220894334Y-95553134D01*
X220736479Y-95565957D01*
X220719683Y-95566065D01*
G37*
G36*
X219795987Y-95566065D02*
G01*
X219759405Y-95563018D01*
X219725456Y-95553406D01*
X219699717Y-95539631D01*
X219677509Y-95520233D01*
X219661161Y-95497611D01*
X219648835Y-95469777D01*
X219641178Y-95437072D01*
X219638451Y-95398749D01*
X219638450Y-95398087D01*
X219638450Y-94946543D01*
X219635470Y-94885575D01*
X219626330Y-94829261D01*
X219612881Y-94783941D01*
X219594180Y-94743350D01*
X219572832Y-94711466D01*
X219546970Y-94684142D01*
X219518739Y-94663143D01*
X219486357Y-94646698D01*
X219450477Y-94635283D01*
X219410385Y-94628803D01*
X219378057Y-94627349D01*
X219333908Y-94630264D01*
X219294870Y-94638948D01*
X219263388Y-94651954D01*
X219236083Y-94669693D01*
X219194684Y-94717452D01*
X219167514Y-94785294D01*
X219155692Y-94880165D01*
X219155491Y-94896168D01*
X219155491Y-95398087D01*
X219152656Y-95437805D01*
X219144538Y-95471491D01*
X219132245Y-95498571D01*
X219116096Y-95520637D01*
X219073405Y-95551314D01*
X219015856Y-95565371D01*
X218997954Y-95566065D01*
X218961377Y-95563018D01*
X218927442Y-95553406D01*
X218901723Y-95539633D01*
X218879534Y-95520239D01*
X218863198Y-95497615D01*
X218850883Y-95469779D01*
X218843231Y-95437061D01*
X218840510Y-95398719D01*
X218840509Y-95398087D01*
X218840509Y-94810073D01*
X218843479Y-94742578D01*
X218852546Y-94678981D01*
X218866327Y-94624733D01*
X218885552Y-94574385D01*
X218908315Y-94531590D01*
X218936020Y-94492641D01*
X218966966Y-94459504D01*
X219002596Y-94430255D01*
X219042083Y-94405615D01*
X219086277Y-94385092D01*
X219190008Y-94357054D01*
X219306707Y-94348087D01*
X219370689Y-94350959D01*
X219429929Y-94359337D01*
X219483920Y-94372724D01*
X219533165Y-94390825D01*
X219577435Y-94413186D01*
X219616913Y-94439534D01*
X219638450Y-94457264D01*
X219638450Y-94098135D01*
X219641285Y-94058440D01*
X219649401Y-94024770D01*
X219661695Y-93997690D01*
X219677844Y-93975620D01*
X219720539Y-93944926D01*
X219778071Y-93930854D01*
X219795987Y-93930157D01*
X219832569Y-93933205D01*
X219866518Y-93942817D01*
X219892256Y-93956591D01*
X219914464Y-93975990D01*
X219930813Y-93998612D01*
X219943139Y-94026446D01*
X219950796Y-94059151D01*
X219953523Y-94097473D01*
X219953524Y-94098135D01*
X219953524Y-95398087D01*
X219950689Y-95437783D01*
X219942573Y-95471453D01*
X219930279Y-95498533D01*
X219914130Y-95520602D01*
X219871435Y-95551297D01*
X219813903Y-95565369D01*
X219795987Y-95566065D01*
G37*
G36*
X217570141Y-95553426D02*
G01*
X217536505Y-95550521D01*
X217506398Y-95541914D01*
X217481758Y-95528776D01*
X217461054Y-95510878D01*
X217445210Y-95489269D01*
X217433738Y-95463487D01*
X217425244Y-95406422D01*
X217428495Y-95372866D01*
X217439529Y-95338812D01*
X217482783Y-95272272D01*
X217488258Y-95265738D01*
X217838961Y-94849915D01*
X217582780Y-94637882D01*
X217552676Y-94608932D01*
X217530687Y-94578770D01*
X217517872Y-94550931D01*
X217510837Y-94521315D01*
X217509233Y-94497198D01*
X217512069Y-94464667D01*
X217520197Y-94435953D01*
X217550168Y-94390187D01*
X217596447Y-94360013D01*
X217656609Y-94348126D01*
X217660450Y-94348087D01*
X217693860Y-94351092D01*
X217726003Y-94360404D01*
X217784372Y-94396356D01*
X218231612Y-94774352D01*
X218231612Y-94096029D01*
X218234446Y-94056334D01*
X218242562Y-94022663D01*
X218254856Y-93995583D01*
X218271006Y-93973514D01*
X218313700Y-93942820D01*
X218371232Y-93928747D01*
X218389148Y-93928051D01*
X218425730Y-93931099D01*
X218459679Y-93940710D01*
X218485418Y-93954485D01*
X218507626Y-93973883D01*
X218523974Y-93996506D01*
X218536300Y-94024339D01*
X218543957Y-94057044D01*
X218546684Y-94095367D01*
X218546685Y-94096029D01*
X218546685Y-95398087D01*
X218543850Y-95437783D01*
X218535734Y-95471453D01*
X218523441Y-95498533D01*
X218507291Y-95520602D01*
X218464596Y-95551297D01*
X218407064Y-95565369D01*
X218389148Y-95566065D01*
X218352566Y-95563018D01*
X218318617Y-95553406D01*
X218292879Y-95539631D01*
X218270671Y-95520233D01*
X218254322Y-95497611D01*
X218241997Y-95469777D01*
X218234339Y-95437072D01*
X218231612Y-95398749D01*
X218231612Y-95398087D01*
X218231612Y-95173323D01*
X218080486Y-95049492D01*
X217715038Y-95484183D01*
X217687171Y-95512962D01*
X217658083Y-95533417D01*
X217601038Y-95551553D01*
X217570141Y-95553426D01*
G37*
G36*
X216818570Y-94350994D02*
G01*
X216880594Y-94359615D01*
X216939302Y-94373637D01*
X216995064Y-94392974D01*
X217047051Y-94417180D01*
X217095662Y-94446305D01*
X217140187Y-94479823D01*
X217180926Y-94517885D01*
X217217358Y-94559995D01*
X217249599Y-94606315D01*
X217277305Y-94656492D01*
X217300394Y-94710586D01*
X217318636Y-94768472D01*
X217331798Y-94830018D01*
X217341987Y-94957076D01*
X217339080Y-95028577D01*
X217330453Y-95096305D01*
X217316672Y-95158561D01*
X217297720Y-95216952D01*
X217274322Y-95270166D01*
X217246231Y-95319423D01*
X217214126Y-95363912D01*
X217177712Y-95404322D01*
X217093002Y-95472050D01*
X216992128Y-95522410D01*
X216874592Y-95554371D01*
X216739762Y-95566053D01*
X216735105Y-95566065D01*
X216662048Y-95563195D01*
X216595854Y-95554824D01*
X216537276Y-95541685D01*
X216484167Y-95523981D01*
X216391339Y-95475644D01*
X216329815Y-95427488D01*
X216297990Y-95394047D01*
X216272132Y-95357975D01*
X216254405Y-95323024D01*
X216243284Y-95286994D01*
X216239506Y-95251084D01*
X216242370Y-95217037D01*
X216250695Y-95188295D01*
X216263067Y-95166186D01*
X216279537Y-95148658D01*
X216323248Y-95127284D01*
X216361322Y-95122948D01*
X216395177Y-95125767D01*
X216425023Y-95133776D01*
X216475608Y-95163861D01*
X216495778Y-95183856D01*
X216510522Y-95202399D01*
X216530759Y-95227097D01*
X216558701Y-95253190D01*
X216590242Y-95273959D01*
X216627229Y-95289658D01*
X216665648Y-95298828D01*
X216710736Y-95303226D01*
X216728785Y-95303565D01*
X216781706Y-95300624D01*
X216828991Y-95291754D01*
X216866836Y-95278632D01*
X216900234Y-95260596D01*
X216927778Y-95238979D01*
X216951450Y-95212884D01*
X216987580Y-95146582D01*
X217009479Y-95055504D01*
X217010245Y-95049492D01*
X216382296Y-95049492D01*
X216345720Y-95046444D01*
X216311785Y-95036830D01*
X216286070Y-95023056D01*
X216263885Y-95003659D01*
X216247550Y-94981031D01*
X216235234Y-94953188D01*
X216227579Y-94920456D01*
X216224852Y-94882097D01*
X216224851Y-94881422D01*
X216224851Y-94856235D01*
X216227644Y-94793220D01*
X216550366Y-94793220D01*
X216550366Y-94797433D01*
X216997605Y-94797433D01*
X216982749Y-94753834D01*
X216963420Y-94715974D01*
X216941491Y-94685957D01*
X216915782Y-94660933D01*
X216855367Y-94626726D01*
X216779545Y-94611343D01*
X216756171Y-94610587D01*
X216710943Y-94613476D01*
X216671140Y-94621975D01*
X216638945Y-94634751D01*
X216611621Y-94651994D01*
X216590087Y-94672494D01*
X216573137Y-94696718D01*
X216553158Y-94756055D01*
X216550366Y-94793220D01*
X216227644Y-94793220D01*
X216227764Y-94790519D01*
X216236430Y-94728768D01*
X216250114Y-94673174D01*
X216268937Y-94621514D01*
X216292002Y-94575299D01*
X216319719Y-94533015D01*
X216351388Y-94495416D01*
X216387376Y-94461827D01*
X216471884Y-94407158D01*
X216574337Y-94369352D01*
X216696415Y-94350046D01*
X216754064Y-94348087D01*
X216818570Y-94350994D01*
G37*
G36*
X215492331Y-94350994D02*
G01*
X215554355Y-94359615D01*
X215613063Y-94373637D01*
X215668825Y-94392974D01*
X215720812Y-94417180D01*
X215769423Y-94446305D01*
X215813948Y-94479823D01*
X215854688Y-94517885D01*
X215891120Y-94559995D01*
X215923360Y-94606315D01*
X215951067Y-94656492D01*
X215974156Y-94710586D01*
X215992397Y-94768472D01*
X216005559Y-94830018D01*
X216015749Y-94957076D01*
X216012842Y-95028577D01*
X216004215Y-95096305D01*
X215990433Y-95158561D01*
X215971481Y-95216952D01*
X215948083Y-95270166D01*
X215919993Y-95319423D01*
X215887887Y-95363912D01*
X215851473Y-95404322D01*
X215766763Y-95472050D01*
X215665889Y-95522410D01*
X215548354Y-95554371D01*
X215413523Y-95566053D01*
X215408866Y-95566065D01*
X215335809Y-95563195D01*
X215269615Y-95554824D01*
X215211037Y-95541685D01*
X215157928Y-95523981D01*
X215065100Y-95475644D01*
X215003576Y-95427488D01*
X214971751Y-95394047D01*
X214945894Y-95357975D01*
X214928167Y-95323024D01*
X214917045Y-95286994D01*
X214913267Y-95251084D01*
X214916131Y-95217037D01*
X214924456Y-95188295D01*
X214936829Y-95166186D01*
X214953298Y-95148658D01*
X214997010Y-95127284D01*
X215035083Y-95122948D01*
X215068938Y-95125767D01*
X215098784Y-95133776D01*
X215149369Y-95163861D01*
X215169539Y-95183856D01*
X215184283Y-95202399D01*
X215204520Y-95227097D01*
X215232462Y-95253190D01*
X215264004Y-95273959D01*
X215300991Y-95289658D01*
X215339409Y-95298828D01*
X215384498Y-95303226D01*
X215402547Y-95303565D01*
X215455467Y-95300624D01*
X215502752Y-95291754D01*
X215540597Y-95278632D01*
X215573995Y-95260596D01*
X215601539Y-95238979D01*
X215625211Y-95212884D01*
X215661341Y-95146582D01*
X215683241Y-95055504D01*
X215684006Y-95049492D01*
X215056058Y-95049492D01*
X215019481Y-95046444D01*
X214985546Y-95036830D01*
X214959832Y-95023056D01*
X214937646Y-95003659D01*
X214921311Y-94981031D01*
X214908995Y-94953188D01*
X214901340Y-94920456D01*
X214898613Y-94882097D01*
X214898613Y-94881422D01*
X214898613Y-94856235D01*
X214901405Y-94793220D01*
X215224127Y-94793220D01*
X215224127Y-94797433D01*
X215671366Y-94797433D01*
X215656511Y-94753834D01*
X215637181Y-94715974D01*
X215615253Y-94685957D01*
X215589543Y-94660933D01*
X215529128Y-94626726D01*
X215453307Y-94611343D01*
X215429932Y-94610587D01*
X215384704Y-94613476D01*
X215344901Y-94621975D01*
X215312707Y-94634751D01*
X215285382Y-94651994D01*
X215263848Y-94672494D01*
X215246898Y-94696718D01*
X215226919Y-94756055D01*
X215224127Y-94793220D01*
X214901405Y-94793220D01*
X214901525Y-94790519D01*
X214910192Y-94728768D01*
X214923875Y-94673174D01*
X214942698Y-94621514D01*
X214965764Y-94575299D01*
X214993481Y-94533015D01*
X215025149Y-94495416D01*
X215061137Y-94461827D01*
X215145645Y-94407158D01*
X215248098Y-94369352D01*
X215370176Y-94350046D01*
X215427826Y-94348087D01*
X215492331Y-94350994D01*
G37*
G36*
X214526149Y-93931099D02*
G01*
X214560098Y-93940710D01*
X214585836Y-93954485D01*
X214608044Y-93973883D01*
X214624393Y-93996506D01*
X214636718Y-94024339D01*
X214644376Y-94057044D01*
X214647103Y-94095367D01*
X214647103Y-94096029D01*
X214647103Y-95398087D01*
X214644269Y-95437783D01*
X214636153Y-95471453D01*
X214623859Y-95498533D01*
X214607709Y-95520602D01*
X214565015Y-95551297D01*
X214507483Y-95565369D01*
X214489567Y-95566065D01*
X214452824Y-95563032D01*
X214418896Y-95553518D01*
X214393165Y-95539857D01*
X214371120Y-95520677D01*
X214355075Y-95498409D01*
X214343172Y-95471098D01*
X214338350Y-95452676D01*
X214300906Y-95484018D01*
X214259823Y-95510514D01*
X214216193Y-95531543D01*
X214168943Y-95547709D01*
X214062687Y-95564971D01*
X214025475Y-95566065D01*
X213962043Y-95563153D01*
X213902272Y-95554491D01*
X213848018Y-95540743D01*
X213797370Y-95521818D01*
X213751424Y-95498409D01*
X213709092Y-95470245D01*
X213636068Y-95400594D01*
X213577758Y-95312338D01*
X213534788Y-95203970D01*
X213508994Y-95073556D01*
X213502581Y-94957076D01*
X213828096Y-94957076D01*
X213830968Y-95017732D01*
X213839350Y-95072234D01*
X213852298Y-95118934D01*
X213869713Y-95160006D01*
X213890555Y-95194475D01*
X213915012Y-95223726D01*
X213942441Y-95247533D01*
X213972842Y-95266313D01*
X214042662Y-95289130D01*
X214090596Y-95293032D01*
X214133133Y-95290122D01*
X214172950Y-95281470D01*
X214208735Y-95267712D01*
X214241514Y-95248779D01*
X214296596Y-95196565D01*
X214332030Y-95137694D01*
X214332030Y-94776459D01*
X214311599Y-94738803D01*
X214287191Y-94706143D01*
X214259826Y-94679252D01*
X214229129Y-94657317D01*
X214159143Y-94628871D01*
X214090596Y-94621029D01*
X214048832Y-94623967D01*
X214009572Y-94632808D01*
X213975010Y-94646671D01*
X213943329Y-94665907D01*
X213915685Y-94689692D01*
X213891312Y-94718582D01*
X213853550Y-94791656D01*
X213831885Y-94887835D01*
X213828096Y-94957076D01*
X213502581Y-94957076D01*
X213505492Y-94877527D01*
X213514142Y-94802963D01*
X213527741Y-94736170D01*
X213546414Y-94674229D01*
X213569038Y-94619392D01*
X213596153Y-94569261D01*
X213626562Y-94525353D01*
X213660995Y-94486051D01*
X213698546Y-94452112D01*
X213739794Y-94422784D01*
X213832674Y-94378468D01*
X213940743Y-94353378D01*
X214025475Y-94348087D01*
X214086040Y-94351002D01*
X214142154Y-94359677D01*
X214191614Y-94373225D01*
X214237204Y-94391835D01*
X214278145Y-94414855D01*
X214315547Y-94442554D01*
X214332030Y-94457264D01*
X214332030Y-94096029D01*
X214334865Y-94056334D01*
X214342981Y-94022663D01*
X214355274Y-93995583D01*
X214371424Y-93973514D01*
X214414119Y-93942820D01*
X214471651Y-93928747D01*
X214489567Y-93928051D01*
X214526149Y-93931099D01*
G37*
G36*
X212791560Y-95566065D02*
G01*
X212714621Y-95563114D01*
X212641952Y-95554178D01*
X212578982Y-95540459D01*
X212520647Y-95521406D01*
X212471438Y-95499061D01*
X212426922Y-95472034D01*
X212390107Y-95442679D01*
X212357948Y-95409160D01*
X212331994Y-95373436D01*
X212310750Y-95333853D01*
X212294771Y-95291368D01*
X212283768Y-95245094D01*
X212277093Y-95164988D01*
X212280021Y-95113810D01*
X212288796Y-95067349D01*
X212302176Y-95028213D01*
X212320579Y-94992790D01*
X212371069Y-94933562D01*
X212443562Y-94885085D01*
X212545788Y-94845571D01*
X212669744Y-94818499D01*
X212709678Y-94812179D01*
X212711692Y-94811866D01*
X212830807Y-94792222D01*
X212910115Y-94772106D01*
X212936299Y-94759561D01*
X212954279Y-94744128D01*
X212964640Y-94724880D01*
X212967964Y-94700896D01*
X212965100Y-94678376D01*
X212956776Y-94658699D01*
X212925139Y-94627735D01*
X212869663Y-94606738D01*
X212799986Y-94600054D01*
X212726585Y-94610676D01*
X212669744Y-94631562D01*
X212614047Y-94667437D01*
X212581542Y-94700896D01*
X212562281Y-94721582D01*
X212538678Y-94737872D01*
X212512124Y-94748803D01*
X212481825Y-94754637D01*
X212463939Y-94755484D01*
X212432277Y-94752566D01*
X212402458Y-94743862D01*
X212376635Y-94730174D01*
X212354453Y-94711315D01*
X212337995Y-94689312D01*
X212326231Y-94662989D01*
X212319042Y-94614801D01*
X212330325Y-94553900D01*
X212363990Y-94497666D01*
X212422899Y-94444636D01*
X212459817Y-94421543D01*
X212558728Y-94381165D01*
X212685651Y-94354115D01*
X212779012Y-94348087D01*
X212854715Y-94351014D01*
X212926303Y-94359778D01*
X212989922Y-94373472D01*
X213048847Y-94392379D01*
X213099302Y-94414772D01*
X213144831Y-94441694D01*
X213182552Y-94470909D01*
X213215313Y-94504044D01*
X213241447Y-94538983D01*
X213262583Y-94577404D01*
X213278044Y-94617960D01*
X213288307Y-94661766D01*
X213293479Y-94726084D01*
X213290526Y-94777056D01*
X213281580Y-94823780D01*
X213268011Y-94862960D01*
X213249201Y-94898774D01*
X213197550Y-94958867D01*
X213123144Y-95008449D01*
X213018303Y-95048992D01*
X212890295Y-95076786D01*
X212850362Y-95083014D01*
X212714217Y-95108763D01*
X212667495Y-95123782D01*
X212633962Y-95142109D01*
X212617499Y-95158206D01*
X212607218Y-95177300D01*
X212602608Y-95206937D01*
X212605489Y-95230801D01*
X212613938Y-95251505D01*
X212645447Y-95283035D01*
X212700748Y-95304305D01*
X212781027Y-95311992D01*
X212841578Y-95309199D01*
X212893880Y-95301370D01*
X212961645Y-95280484D01*
X213018071Y-95245638D01*
X213051953Y-95211150D01*
X213071124Y-95190515D01*
X213094606Y-95174268D01*
X213121113Y-95163312D01*
X213151336Y-95157441D01*
X213169556Y-95156562D01*
X213201247Y-95159481D01*
X213231091Y-95168190D01*
X213256910Y-95181878D01*
X213279085Y-95200738D01*
X213295526Y-95222739D01*
X213307277Y-95249064D01*
X213314453Y-95297246D01*
X213311561Y-95328622D01*
X213303037Y-95358556D01*
X213269012Y-95414817D01*
X213210022Y-95466502D01*
X213188424Y-95479970D01*
X213093379Y-95522626D01*
X212966211Y-95553134D01*
X212808356Y-95565957D01*
X212791560Y-95566065D01*
G37*
D11*
X112915588Y-105495619D02*
X113248921Y-105019428D01*
X113487016Y-105495619D02*
X113487016Y-104495619D01*
X113487016Y-104495619D02*
X113106064Y-104495619D01*
X113106064Y-104495619D02*
X113010826Y-104543238D01*
X113010826Y-104543238D02*
X112963207Y-104590857D01*
X112963207Y-104590857D02*
X112915588Y-104686095D01*
X112915588Y-104686095D02*
X112915588Y-104828952D01*
X112915588Y-104828952D02*
X112963207Y-104924190D01*
X112963207Y-104924190D02*
X113010826Y-104971809D01*
X113010826Y-104971809D02*
X113106064Y-105019428D01*
X113106064Y-105019428D02*
X113487016Y-105019428D01*
X112487016Y-104971809D02*
X112153683Y-104971809D01*
X112010826Y-105495619D02*
X112487016Y-105495619D01*
X112487016Y-105495619D02*
X112487016Y-104495619D01*
X112487016Y-104495619D02*
X112010826Y-104495619D01*
X111629873Y-105448000D02*
X111487016Y-105495619D01*
X111487016Y-105495619D02*
X111248921Y-105495619D01*
X111248921Y-105495619D02*
X111153683Y-105448000D01*
X111153683Y-105448000D02*
X111106064Y-105400380D01*
X111106064Y-105400380D02*
X111058445Y-105305142D01*
X111058445Y-105305142D02*
X111058445Y-105209904D01*
X111058445Y-105209904D02*
X111106064Y-105114666D01*
X111106064Y-105114666D02*
X111153683Y-105067047D01*
X111153683Y-105067047D02*
X111248921Y-105019428D01*
X111248921Y-105019428D02*
X111439397Y-104971809D01*
X111439397Y-104971809D02*
X111534635Y-104924190D01*
X111534635Y-104924190D02*
X111582254Y-104876571D01*
X111582254Y-104876571D02*
X111629873Y-104781333D01*
X111629873Y-104781333D02*
X111629873Y-104686095D01*
X111629873Y-104686095D02*
X111582254Y-104590857D01*
X111582254Y-104590857D02*
X111534635Y-104543238D01*
X111534635Y-104543238D02*
X111439397Y-104495619D01*
X111439397Y-104495619D02*
X111201302Y-104495619D01*
X111201302Y-104495619D02*
X111058445Y-104543238D01*
X110629873Y-104971809D02*
X110296540Y-104971809D01*
X110153683Y-105495619D02*
X110629873Y-105495619D01*
X110629873Y-105495619D02*
X110629873Y-104495619D01*
X110629873Y-104495619D02*
X110153683Y-104495619D01*
X109867968Y-104495619D02*
X109296540Y-104495619D01*
X109582254Y-105495619D02*
X109582254Y-104495619D01*
D12*
G36*
X224299834Y-93343447D02*
G01*
X224417231Y-93336539D01*
X224524165Y-93316506D01*
X224622023Y-93284031D01*
X224711994Y-93239308D01*
X224795309Y-93182008D01*
X224868012Y-93114958D01*
X224930879Y-93037571D01*
X224984294Y-92948872D01*
X225025384Y-92854587D01*
X225055263Y-92752846D01*
X225073675Y-92642633D01*
X225080006Y-92522791D01*
X225073681Y-92402945D01*
X225055285Y-92292730D01*
X225025434Y-92190990D01*
X224984385Y-92096709D01*
X224930984Y-92008030D01*
X224867983Y-91930647D01*
X224794981Y-91863587D01*
X224711169Y-91806274D01*
X224620772Y-91761584D01*
X224522310Y-91729105D01*
X224414579Y-91709053D01*
X224296170Y-91702135D01*
X224170507Y-91708537D01*
X224065775Y-91726331D01*
X223978807Y-91753792D01*
X223896549Y-91793276D01*
X223829248Y-91838584D01*
X223774925Y-91889530D01*
X223725771Y-91948580D01*
X223690845Y-92007500D01*
X223668784Y-92070215D01*
X223661444Y-92136002D01*
X223668103Y-92176551D01*
X223686632Y-92205611D01*
X223715000Y-92224322D01*
X223751570Y-92230799D01*
X223775548Y-92227575D01*
X223795717Y-92218251D01*
X223813014Y-92203077D01*
X223829330Y-92180423D01*
X223870132Y-92086161D01*
X223927882Y-92008232D01*
X223990192Y-91954949D01*
X224074795Y-91912611D01*
X224172583Y-91887280D01*
X224297269Y-91877990D01*
X224418053Y-91887692D01*
X224522356Y-91915366D01*
X224613075Y-91959872D01*
X224693308Y-92021272D01*
X224759459Y-92096363D01*
X224812469Y-92186743D01*
X224849534Y-92285524D01*
X224872641Y-92396799D01*
X224880704Y-92522699D01*
X224872564Y-92647247D01*
X224849137Y-92758298D01*
X224811370Y-92857831D01*
X224757665Y-92948830D01*
X224691099Y-93024243D01*
X224610785Y-93085710D01*
X224520035Y-93130288D01*
X224416329Y-93157927D01*
X224296903Y-93167592D01*
X224207840Y-93162846D01*
X224132226Y-93149534D01*
X224068108Y-93128757D01*
X224008042Y-93098629D01*
X223957290Y-93061915D01*
X223914785Y-93018482D01*
X223864410Y-92949147D01*
X223832806Y-92892824D01*
X223809730Y-92833651D01*
X223778314Y-92796923D01*
X223759937Y-92788423D01*
X223736274Y-92785382D01*
X223697555Y-92791488D01*
X223669046Y-92808555D01*
X223650507Y-92835503D01*
X223643859Y-92873768D01*
X223651752Y-92940682D01*
X223676465Y-93010788D01*
X223714344Y-93077220D01*
X223763751Y-93139107D01*
X223819562Y-93193102D01*
X223888646Y-93241969D01*
X223972945Y-93285561D01*
X224062388Y-93316371D01*
X224170212Y-93336285D01*
X224299834Y-93343447D01*
G37*
G36*
X223160716Y-93337585D02*
G01*
X223198561Y-93331222D01*
X223225928Y-93313405D01*
X223243006Y-93284280D01*
X223249651Y-93236560D01*
X223249651Y-91834301D01*
X223239575Y-91777450D01*
X223211915Y-91739596D01*
X223170485Y-91716106D01*
X223119408Y-91707997D01*
X223072103Y-91714104D01*
X223035419Y-91731169D01*
X223004870Y-91760649D01*
X222972404Y-91813235D01*
X222399228Y-93023886D01*
X222433025Y-93023886D01*
X221884303Y-91823768D01*
X221849602Y-91765377D01*
X221817991Y-91733276D01*
X221779947Y-91714644D01*
X221730796Y-91707997D01*
X221679884Y-91716139D01*
X221639296Y-91739596D01*
X221612343Y-91777363D01*
X221602477Y-91834301D01*
X221602477Y-93236560D01*
X221609583Y-93282366D01*
X221628580Y-93312306D01*
X221657965Y-93331043D01*
X221696266Y-93337585D01*
X221736283Y-93330917D01*
X221765051Y-93312306D01*
X221783211Y-93282472D01*
X221790055Y-93236560D01*
X221790055Y-91886966D01*
X221750122Y-91962803D01*
X222333831Y-93238667D01*
X222352934Y-93268104D01*
X222371842Y-93283913D01*
X222394093Y-93292473D01*
X222420293Y-93295453D01*
X222458822Y-93288932D01*
X222487536Y-93270462D01*
X222508862Y-93238667D01*
X223117943Y-91964910D01*
X223073796Y-91886966D01*
X223073796Y-93236560D01*
X223080191Y-93284384D01*
X223096510Y-93313405D01*
X223122980Y-93331180D01*
X223160716Y-93337585D01*
G37*
G36*
X221041573Y-93325861D02*
G01*
X221087461Y-93319193D01*
X221117136Y-93301590D01*
X221135717Y-93273657D01*
X221142323Y-93235186D01*
X221142323Y-91809205D01*
X221135232Y-91763230D01*
X221116311Y-91733276D01*
X221086914Y-91714542D01*
X221048534Y-91707997D01*
X221008596Y-91714661D01*
X220979841Y-91733276D01*
X220961617Y-91763141D01*
X220954745Y-91809205D01*
X220954745Y-93300216D01*
X221119426Y-93144145D01*
X220038468Y-93144145D01*
X219990905Y-93150741D01*
X219961898Y-93167684D01*
X219944144Y-93195005D01*
X219937718Y-93233995D01*
X219944101Y-93273093D01*
X219961898Y-93301315D01*
X219991009Y-93319018D01*
X220038468Y-93325861D01*
X221041573Y-93325861D01*
G37*
G36*
X219282658Y-93337585D02*
G01*
X219314063Y-93333164D01*
X219338346Y-93320732D01*
X219358231Y-93299523D01*
X219379287Y-93261748D01*
X219986169Y-91849047D01*
X219997374Y-91811456D01*
X219996702Y-91778522D01*
X219985776Y-91749003D01*
X219966294Y-91726956D01*
X219939525Y-91712992D01*
X219904287Y-91707997D01*
X219864733Y-91714761D01*
X219835477Y-91733897D01*
X219813978Y-91766890D01*
X219259577Y-93070231D01*
X219291085Y-93070231D01*
X218738790Y-91766890D01*
X218718512Y-91733939D01*
X218690010Y-91714804D01*
X218650588Y-91707997D01*
X218615607Y-91713269D01*
X218589680Y-91727964D01*
X218571715Y-91750865D01*
X218563485Y-91780628D01*
X218565134Y-91813222D01*
X218577132Y-91849047D01*
X219181908Y-93261748D01*
X219201533Y-93295911D01*
X219223948Y-93318626D01*
X219250993Y-93332772D01*
X219282658Y-93337585D01*
G37*
G36*
X217336531Y-93334654D02*
G01*
X217374919Y-93328129D01*
X217404309Y-93309467D01*
X217423236Y-93279535D01*
X217430321Y-93233721D01*
X217430321Y-91875334D01*
X217399088Y-91930746D01*
X217491870Y-91930746D01*
X217496083Y-91930746D01*
X217541420Y-91933952D01*
X217573019Y-91949706D01*
X217611946Y-91989731D01*
X218161858Y-92658712D01*
X218164057Y-92660819D01*
X218196663Y-92710278D01*
X218204082Y-92763950D01*
X218204082Y-92862777D01*
X218250335Y-92833468D01*
X217079893Y-92833468D01*
X217033809Y-92839850D01*
X217004239Y-92856549D01*
X216985621Y-92883393D01*
X216978960Y-92921395D01*
X216985495Y-92957768D01*
X217004239Y-92985234D01*
X217033907Y-93002696D01*
X217079893Y-93009323D01*
X218296589Y-93009323D01*
X218342432Y-93002145D01*
X218372335Y-92982944D01*
X218390992Y-92953277D01*
X218397522Y-92914526D01*
X218397522Y-92752226D01*
X218393658Y-92696610D01*
X218383875Y-92659536D01*
X218365452Y-92625415D01*
X218330203Y-92579486D01*
X218323883Y-92571059D01*
X217688699Y-91814517D01*
X217626600Y-91752327D01*
X217599051Y-91735629D01*
X217569814Y-91726040D01*
X217482527Y-91719720D01*
X217337447Y-91719720D01*
X217298719Y-91726274D01*
X217269120Y-91745000D01*
X217249920Y-91774902D01*
X217242742Y-91820745D01*
X217242742Y-93233629D01*
X217249608Y-93279533D01*
X217267838Y-93309375D01*
X217296593Y-93327990D01*
X217336531Y-93334654D01*
G37*
G36*
X216596017Y-93337585D02*
G01*
X216634036Y-93331006D01*
X216662421Y-93312306D01*
X216680512Y-93282481D01*
X216687334Y-93236560D01*
X216687334Y-91809022D01*
X216680199Y-91763160D01*
X216661139Y-91733276D01*
X216631628Y-91714550D01*
X216592995Y-91707997D01*
X216560852Y-91711300D01*
X216534285Y-91720636D01*
X216510221Y-91737519D01*
X216481895Y-91768996D01*
X215534202Y-93038632D01*
X215567725Y-93087083D01*
X215567725Y-91809022D01*
X215561094Y-91762955D01*
X215543636Y-91733276D01*
X215515784Y-91714624D01*
X215477416Y-91707997D01*
X215437138Y-91714457D01*
X215409180Y-91732177D01*
X215391763Y-91761284D01*
X215385000Y-91809022D01*
X215385000Y-93236560D01*
X215391888Y-93282455D01*
X215410188Y-93312306D01*
X215439144Y-93330913D01*
X215479431Y-93337585D01*
X215511527Y-93334254D01*
X215537316Y-93324945D01*
X215560923Y-93308189D01*
X215590897Y-93276494D01*
X216538224Y-92006950D01*
X216504610Y-91969031D01*
X216504610Y-93236560D01*
X216511189Y-93282579D01*
X216528515Y-93312306D01*
X216556348Y-93330885D01*
X216596017Y-93337585D01*
G37*
G36*
X213721249Y-93337585D02*
G01*
X213752654Y-93333164D01*
X213776936Y-93320732D01*
X213796821Y-93299523D01*
X213817877Y-93261748D01*
X214424760Y-91849047D01*
X214435964Y-91811456D01*
X214435293Y-91778522D01*
X214424366Y-91749003D01*
X214404884Y-91726956D01*
X214378116Y-91712992D01*
X214342877Y-91707997D01*
X214303324Y-91714761D01*
X214274067Y-91733897D01*
X214252568Y-91766890D01*
X213698168Y-93070231D01*
X213729675Y-93070231D01*
X213177381Y-91766890D01*
X213157102Y-91733939D01*
X213128600Y-91714804D01*
X213089179Y-91707997D01*
X213054197Y-91713269D01*
X213028271Y-91727964D01*
X213010306Y-91750865D01*
X213002076Y-91780628D01*
X213003725Y-91813222D01*
X213015723Y-91849047D01*
X213620498Y-93261748D01*
X213640124Y-93295911D01*
X213662539Y-93318626D01*
X213689583Y-93332772D01*
X213721249Y-93337585D01*
G37*
G36*
X212167410Y-91709089D02*
G01*
X212266117Y-91729078D01*
X212354419Y-91761228D01*
X212433753Y-91805266D01*
X212505913Y-91861323D01*
X212568805Y-91927418D01*
X212622962Y-92004398D01*
X212668501Y-92093504D01*
X212711682Y-92219356D01*
X212738726Y-92361581D01*
X212748185Y-92522791D01*
X212738726Y-92684000D01*
X212711682Y-92826226D01*
X212668501Y-92952078D01*
X212622969Y-93041137D01*
X212568816Y-93118106D01*
X212505921Y-93184217D01*
X212433753Y-93240315D01*
X212354419Y-93284354D01*
X212266117Y-93316503D01*
X212167410Y-93336493D01*
X212056581Y-93343447D01*
X211945652Y-93336491D01*
X211846885Y-93316498D01*
X211758557Y-93284348D01*
X211679226Y-93240315D01*
X211607058Y-93184217D01*
X211544163Y-93118106D01*
X211490010Y-93041137D01*
X211444478Y-92952078D01*
X211401297Y-92826226D01*
X211374253Y-92684000D01*
X211364794Y-92522791D01*
X211364907Y-92520867D01*
X211564096Y-92520867D01*
X211570883Y-92647451D01*
X211590210Y-92758510D01*
X211620882Y-92856091D01*
X211665791Y-92946934D01*
X211721337Y-93021133D01*
X211787761Y-93080855D01*
X211864821Y-93124975D01*
X211953807Y-93152199D01*
X212057588Y-93161730D01*
X212161309Y-93152201D01*
X212250266Y-93124978D01*
X212327324Y-93080855D01*
X212393668Y-93021103D01*
X212448873Y-92946907D01*
X212493196Y-92856091D01*
X212523261Y-92758566D01*
X212542221Y-92647503D01*
X212548883Y-92520867D01*
X212542237Y-92394303D01*
X212523290Y-92282910D01*
X212493196Y-92184728D01*
X212448815Y-92093194D01*
X212393601Y-92018661D01*
X212327324Y-91958865D01*
X212250266Y-91914742D01*
X212161309Y-91887519D01*
X212057588Y-91877990D01*
X211953807Y-91887521D01*
X211864821Y-91914745D01*
X211787761Y-91958865D01*
X211721404Y-92018630D01*
X211665849Y-92093168D01*
X211620882Y-92184728D01*
X211590181Y-92282966D01*
X211570867Y-92394355D01*
X211564096Y-92520867D01*
X211364907Y-92520867D01*
X211374253Y-92361581D01*
X211401297Y-92219356D01*
X211444478Y-92093504D01*
X211490017Y-92004398D01*
X211544173Y-91927418D01*
X211607066Y-91861323D01*
X211679226Y-91805266D01*
X211758557Y-91761234D01*
X211846885Y-91729084D01*
X211945652Y-91709091D01*
X212056581Y-91702135D01*
X212167410Y-91709089D01*
G37*
G36*
X210895206Y-93343447D02*
G01*
X210951535Y-93333301D01*
X210997056Y-93303513D01*
X211027506Y-93258468D01*
X211037997Y-93200656D01*
X211027685Y-93146411D01*
X210997056Y-93102013D01*
X210951535Y-93072225D01*
X210895206Y-93062079D01*
X210839229Y-93072046D01*
X210795555Y-93100914D01*
X210766620Y-93144608D01*
X210756629Y-93200656D01*
X210766666Y-93258633D01*
X210795555Y-93303513D01*
X210839319Y-93333235D01*
X210895206Y-93343447D01*
G37*
G36*
X209950628Y-93337585D02*
G01*
X209990645Y-93330917D01*
X210019412Y-93312306D01*
X210037573Y-93282472D01*
X210044417Y-93236560D01*
X210044417Y-91924884D01*
X210017306Y-91956392D01*
X210444853Y-92289050D01*
X210480814Y-92306876D01*
X210511989Y-92312223D01*
X210550465Y-92305890D01*
X210579034Y-92288043D01*
X210597792Y-92260685D01*
X210604221Y-92225853D01*
X210600934Y-92197893D01*
X210591673Y-92175386D01*
X210576161Y-92155625D01*
X210551831Y-92135361D01*
X210047348Y-91745824D01*
X209990037Y-91715957D01*
X209951086Y-91707997D01*
X209910894Y-91714669D01*
X209882026Y-91733276D01*
X209863733Y-91763062D01*
X209856838Y-91809022D01*
X209856838Y-93236560D01*
X209863704Y-93282463D01*
X209881934Y-93312306D01*
X209910690Y-93330921D01*
X209950628Y-93337585D01*
G37*
G36*
X208758478Y-93337585D02*
G01*
X208791796Y-93332886D01*
X208817280Y-93319725D01*
X208835496Y-93298650D01*
X208844574Y-93270266D01*
X208843690Y-93238539D01*
X208831934Y-93202855D01*
X208229265Y-91783743D01*
X208200359Y-91739667D01*
X208167329Y-91715839D01*
X208128515Y-91707997D01*
X208097110Y-91712418D01*
X208072827Y-91724849D01*
X208052948Y-91745985D01*
X208031886Y-91783743D01*
X207429125Y-93202855D01*
X207418002Y-93238492D01*
X207418684Y-93270266D01*
X207429798Y-93298505D01*
X207450191Y-93319725D01*
X207477727Y-93332886D01*
X207513206Y-93337585D01*
X207551304Y-93330901D01*
X207579935Y-93311821D01*
X207601408Y-93278600D01*
X208151596Y-91964818D01*
X208115875Y-91964818D01*
X208668169Y-93278600D01*
X208688540Y-93311451D01*
X208717665Y-93330689D01*
X208758478Y-93337585D01*
G37*
G36*
X208546353Y-92739678D02*
G01*
X207737879Y-92739678D01*
X207662225Y-92921395D01*
X208628236Y-92921395D01*
X208546353Y-92739678D01*
G37*
G36*
X206613141Y-93337585D02*
G01*
X206709287Y-93329718D01*
X206794070Y-93307067D01*
X206869504Y-93270266D01*
X206936058Y-93219362D01*
X206992591Y-93154713D01*
X207039589Y-93074444D01*
X207010188Y-92870196D01*
X206983079Y-92960948D01*
X206940684Y-93035865D01*
X206882785Y-93097616D01*
X206812197Y-93144258D01*
X206733958Y-93172206D01*
X206645747Y-93181789D01*
X206575552Y-93175796D01*
X206511317Y-93158249D01*
X206451849Y-93129215D01*
X206399166Y-93089350D01*
X206354006Y-93038273D01*
X206316019Y-92974426D01*
X206289318Y-92904659D01*
X206272436Y-92823607D01*
X206266468Y-92729237D01*
X206272438Y-92634805D01*
X206289320Y-92553724D01*
X206316019Y-92483956D01*
X206354009Y-92420115D01*
X206399169Y-92369070D01*
X206451849Y-92329259D01*
X206511323Y-92300173D01*
X206575557Y-92282596D01*
X206645747Y-92276594D01*
X206735393Y-92286147D01*
X206813919Y-92313843D01*
X206883792Y-92359759D01*
X206940921Y-92420837D01*
X206983043Y-92496004D01*
X207010188Y-92588187D01*
X207039222Y-92381832D01*
X206991171Y-92302774D01*
X206934287Y-92238814D01*
X206868130Y-92188209D01*
X206793390Y-92151388D01*
X206709025Y-92128693D01*
X206612957Y-92120798D01*
X206509985Y-92129232D01*
X206418238Y-92153624D01*
X206335711Y-92193429D01*
X206262577Y-92248323D01*
X206200844Y-92317531D01*
X206149873Y-92402898D01*
X206114181Y-92496349D01*
X206091679Y-92604270D01*
X206083744Y-92729237D01*
X206091640Y-92852701D01*
X206114127Y-92960329D01*
X206149965Y-93054477D01*
X206200999Y-93140484D01*
X206262769Y-93210005D01*
X206335894Y-93264953D01*
X206418421Y-93304759D01*
X206510168Y-93329151D01*
X206613141Y-93337585D01*
G37*
G36*
X207076408Y-92124187D02*
G01*
X207040132Y-92130200D01*
X207012295Y-92147359D01*
X206994277Y-92175158D01*
X206987473Y-92218892D01*
X206987473Y-93659070D01*
X206994277Y-93702803D01*
X207012295Y-93730602D01*
X207040132Y-93747762D01*
X207076408Y-93753775D01*
X207112515Y-93747727D01*
X207139515Y-93730602D01*
X207156765Y-93702904D01*
X207163328Y-93659070D01*
X207163328Y-92218892D01*
X207156765Y-92175057D01*
X207139515Y-92147359D01*
X207112515Y-92130234D01*
X207076408Y-92124187D01*
G37*
G36*
X205720311Y-93337585D02*
G01*
X205756524Y-93331579D01*
X205784425Y-93314412D01*
X205802442Y-93286613D01*
X205809246Y-93242880D01*
X205809246Y-92223471D01*
X205802365Y-92177896D01*
X205784425Y-92149832D01*
X205756524Y-92132666D01*
X205720311Y-92126659D01*
X205684140Y-92132714D01*
X205657205Y-92149832D01*
X205640028Y-92177792D01*
X205633391Y-92223471D01*
X205633391Y-92406653D01*
X205699611Y-92421400D01*
X205675124Y-92332369D01*
X205638818Y-92261153D01*
X205591259Y-92204603D01*
X205531664Y-92162210D01*
X205459547Y-92135969D01*
X205371441Y-92126659D01*
X205292711Y-92134335D01*
X205226360Y-92156152D01*
X205169352Y-92191477D01*
X205127442Y-92236111D01*
X205095700Y-92289002D01*
X205076963Y-92344769D01*
X205070655Y-92404638D01*
X205076137Y-92443205D01*
X205090714Y-92468844D01*
X205114042Y-92485130D01*
X205146584Y-92490917D01*
X205175590Y-92486690D01*
X205196044Y-92475163D01*
X205211522Y-92456464D01*
X205224528Y-92427811D01*
X205246034Y-92366386D01*
X205277193Y-92324588D01*
X205303858Y-92306123D01*
X205333064Y-92292989D01*
X205365467Y-92285313D01*
X205407894Y-92282456D01*
X205480644Y-92292493D01*
X205536118Y-92320516D01*
X205578620Y-92366720D01*
X205607414Y-92425506D01*
X205626389Y-92501905D01*
X205633391Y-92600460D01*
X205633391Y-93242880D01*
X205639954Y-93286714D01*
X205657205Y-93314412D01*
X205684140Y-93331530D01*
X205720311Y-93337585D01*
G37*
G36*
X204093196Y-92311765D02*
G01*
X204131568Y-92305199D01*
X204160973Y-92286394D01*
X204179897Y-92256364D01*
X204186985Y-92210374D01*
X204186985Y-91809296D01*
X204179894Y-91763322D01*
X204160973Y-91733367D01*
X204131568Y-91714563D01*
X204093196Y-91707997D01*
X204054838Y-91714566D01*
X204025510Y-91733367D01*
X204006519Y-91763331D01*
X203999406Y-91809296D01*
X203999406Y-92210374D01*
X204006516Y-92256355D01*
X204025510Y-92286394D01*
X204054838Y-92305195D01*
X204093196Y-92311765D01*
G37*
G36*
X203521301Y-93320000D02*
G01*
X203569059Y-93313285D01*
X203599062Y-93295819D01*
X203617647Y-93267987D01*
X203624249Y-93229691D01*
X203624249Y-93107691D01*
X203618154Y-93007577D01*
X203601220Y-92924787D01*
X203574973Y-92856457D01*
X203535952Y-92794980D01*
X203479058Y-92735206D01*
X203400859Y-92676755D01*
X203314869Y-92628527D01*
X203197866Y-92576639D01*
X203043104Y-92521142D01*
X202889943Y-92467269D01*
X202793427Y-92424514D01*
X202716885Y-92373864D01*
X202667581Y-92317352D01*
X202646386Y-92273510D01*
X202632699Y-92218990D01*
X202627739Y-92151297D01*
X202638011Y-92072781D01*
X202667509Y-92007638D01*
X202716857Y-91952636D01*
X202780472Y-91913167D01*
X202864185Y-91887466D01*
X202973770Y-91877990D01*
X203062575Y-91882934D01*
X203138887Y-91896888D01*
X203204487Y-91918839D01*
X203265727Y-91950421D01*
X203319298Y-91989784D01*
X203365963Y-92037267D01*
X203412124Y-92106509D01*
X203441434Y-92165311D01*
X203458195Y-92194528D01*
X203483474Y-92220815D01*
X203519011Y-92228142D01*
X203555188Y-92221568D01*
X203580927Y-92203046D01*
X203597015Y-92174391D01*
X203602909Y-92133895D01*
X203596491Y-92072905D01*
X203577629Y-92017575D01*
X203548144Y-91965686D01*
X203508112Y-91913802D01*
X203447396Y-91852577D01*
X203374933Y-91800573D01*
X203289209Y-91757639D01*
X203197687Y-91727783D01*
X203091761Y-91708835D01*
X202969098Y-91702135D01*
X202859234Y-91708693D01*
X202764145Y-91727286D01*
X202681686Y-91756723D01*
X202605857Y-91799134D01*
X202545098Y-91850392D01*
X202497496Y-91910871D01*
X202462758Y-91979717D01*
X202441590Y-92055731D01*
X202434298Y-92140581D01*
X202440554Y-92240398D01*
X202457882Y-92322265D01*
X202484673Y-92389251D01*
X202523492Y-92449632D01*
X202574082Y-92502606D01*
X202637814Y-92548711D01*
X202750862Y-92605031D01*
X202914693Y-92662925D01*
X203116532Y-92733262D01*
X203242040Y-92790969D01*
X203313514Y-92835886D01*
X203361779Y-92877679D01*
X203392066Y-92916816D01*
X203420691Y-92986432D01*
X203430809Y-93072062D01*
X203430809Y-93189574D01*
X203475414Y-93138283D01*
X202517371Y-93138283D01*
X202469823Y-93144883D01*
X202440893Y-93161822D01*
X202423139Y-93189143D01*
X202416713Y-93228134D01*
X202423097Y-93267231D01*
X202440893Y-93295453D01*
X202470015Y-93313153D01*
X202517554Y-93320000D01*
X203521301Y-93320000D01*
G37*
G36*
X201518390Y-91708508D02*
G01*
X201612142Y-91726945D01*
X201697331Y-91756779D01*
X201775117Y-91797848D01*
X201845633Y-91850335D01*
X201907960Y-91914189D01*
X201962548Y-91990511D01*
X202009407Y-92080864D01*
X202053322Y-92208329D01*
X202081387Y-92358499D01*
X202091381Y-92535339D01*
X202082777Y-92700577D01*
X202058699Y-92840131D01*
X202021241Y-92957720D01*
X201971753Y-93056585D01*
X201910764Y-93139382D01*
X201834458Y-93211653D01*
X201748033Y-93267892D01*
X201650063Y-93308906D01*
X201538514Y-93334492D01*
X201410860Y-93343447D01*
X201292129Y-93335193D01*
X201186400Y-93311424D01*
X201091665Y-93273013D01*
X201005289Y-93219084D01*
X200934415Y-93153737D01*
X200877433Y-93076184D01*
X200835771Y-92989255D01*
X200810460Y-92894484D01*
X200802274Y-92796007D01*
X200995219Y-92796007D01*
X201001183Y-92869065D01*
X201018523Y-92935006D01*
X201046968Y-92995126D01*
X201086046Y-93048720D01*
X201134906Y-93093813D01*
X201194705Y-93130956D01*
X201260355Y-93157151D01*
X201335411Y-93173558D01*
X201421576Y-93179316D01*
X201504923Y-93173938D01*
X201577896Y-93158590D01*
X201642035Y-93134070D01*
X201700796Y-93099313D01*
X201748944Y-93057341D01*
X201787665Y-93007766D01*
X201816082Y-92951756D01*
X201833373Y-92890074D01*
X201839323Y-92821378D01*
X201832847Y-92747224D01*
X201814114Y-92681406D01*
X201783452Y-92622350D01*
X201741773Y-92570270D01*
X201690800Y-92526926D01*
X201629396Y-92491833D01*
X201562595Y-92467196D01*
X201488103Y-92451902D01*
X201404631Y-92446587D01*
X201307082Y-92453271D01*
X201226057Y-92471935D01*
X201158733Y-92501123D01*
X201102839Y-92540285D01*
X201056290Y-92590673D01*
X201023030Y-92648934D01*
X201002445Y-92716628D01*
X200995219Y-92796007D01*
X200802274Y-92796007D01*
X200801779Y-92790054D01*
X200809880Y-92689597D01*
X200833256Y-92600469D01*
X200871297Y-92520684D01*
X200923924Y-92449931D01*
X200990406Y-92390179D01*
X201072522Y-92340799D01*
X201162493Y-92306104D01*
X201266011Y-92284278D01*
X201385489Y-92276594D01*
X201481276Y-92282757D01*
X201573022Y-92301042D01*
X201661544Y-92331457D01*
X201744062Y-92374299D01*
X201814584Y-92427960D01*
X201874402Y-92492932D01*
X201902658Y-92539625D01*
X201903803Y-92502641D01*
X201894914Y-92351608D01*
X201870275Y-92227223D01*
X201832227Y-92125107D01*
X201782078Y-92041571D01*
X201729525Y-91983329D01*
X201668928Y-91938335D01*
X201599197Y-91905617D01*
X201518617Y-91885176D01*
X201424965Y-91877990D01*
X201307743Y-91887105D01*
X201217179Y-91911842D01*
X201147627Y-91949614D01*
X201107785Y-91982404D01*
X201074171Y-92019315D01*
X201036344Y-92069873D01*
X201027917Y-92078299D01*
X200991189Y-92112096D01*
X200952355Y-92120523D01*
X200917733Y-92114261D01*
X200891447Y-92096251D01*
X200874405Y-92068781D01*
X200868366Y-92031954D01*
X200882623Y-91976905D01*
X200909307Y-91923785D01*
X200946905Y-91874748D01*
X200998608Y-91826058D01*
X201075025Y-91774907D01*
X201174188Y-91734650D01*
X201284406Y-91710667D01*
X201414706Y-91702135D01*
X201518390Y-91708508D01*
G37*
D11*
X155446115Y-103707475D02*
X155446115Y-102707475D01*
X155446115Y-103183665D02*
X154874687Y-103183665D01*
X154874687Y-103707475D02*
X154874687Y-102707475D01*
X154017544Y-103659856D02*
X154112782Y-103707475D01*
X154112782Y-103707475D02*
X154303258Y-103707475D01*
X154303258Y-103707475D02*
X154398496Y-103659856D01*
X154398496Y-103659856D02*
X154446115Y-103564617D01*
X154446115Y-103564617D02*
X154446115Y-103183665D01*
X154446115Y-103183665D02*
X154398496Y-103088427D01*
X154398496Y-103088427D02*
X154303258Y-103040808D01*
X154303258Y-103040808D02*
X154112782Y-103040808D01*
X154112782Y-103040808D02*
X154017544Y-103088427D01*
X154017544Y-103088427D02*
X153969925Y-103183665D01*
X153969925Y-103183665D02*
X153969925Y-103278903D01*
X153969925Y-103278903D02*
X154446115Y-103374141D01*
X153398496Y-103707475D02*
X153493734Y-103659856D01*
X153493734Y-103659856D02*
X153541353Y-103564617D01*
X153541353Y-103564617D02*
X153541353Y-102707475D01*
X152874686Y-103707475D02*
X152969924Y-103659856D01*
X152969924Y-103659856D02*
X153017543Y-103564617D01*
X153017543Y-103564617D02*
X153017543Y-102707475D01*
X152350876Y-103707475D02*
X152446114Y-103659856D01*
X152446114Y-103659856D02*
X152493733Y-103612236D01*
X152493733Y-103612236D02*
X152541352Y-103516998D01*
X152541352Y-103516998D02*
X152541352Y-103231284D01*
X152541352Y-103231284D02*
X152493733Y-103136046D01*
X152493733Y-103136046D02*
X152446114Y-103088427D01*
X152446114Y-103088427D02*
X152350876Y-103040808D01*
X152350876Y-103040808D02*
X152208019Y-103040808D01*
X152208019Y-103040808D02*
X152112781Y-103088427D01*
X152112781Y-103088427D02*
X152065162Y-103136046D01*
X152065162Y-103136046D02*
X152017543Y-103231284D01*
X152017543Y-103231284D02*
X152017543Y-103516998D01*
X152017543Y-103516998D02*
X152065162Y-103612236D01*
X152065162Y-103612236D02*
X152112781Y-103659856D01*
X152112781Y-103659856D02*
X152208019Y-103707475D01*
X152208019Y-103707475D02*
X152350876Y-103707475D01*
X155588972Y-104317419D02*
X155017544Y-104317419D01*
X155303258Y-105317419D02*
X155303258Y-104317419D01*
X154684210Y-105317419D02*
X154684210Y-104317419D01*
X154255639Y-105317419D02*
X154255639Y-104793609D01*
X154255639Y-104793609D02*
X154303258Y-104698371D01*
X154303258Y-104698371D02*
X154398496Y-104650752D01*
X154398496Y-104650752D02*
X154541353Y-104650752D01*
X154541353Y-104650752D02*
X154636591Y-104698371D01*
X154636591Y-104698371D02*
X154684210Y-104745990D01*
X153398496Y-105269800D02*
X153493734Y-105317419D01*
X153493734Y-105317419D02*
X153684210Y-105317419D01*
X153684210Y-105317419D02*
X153779448Y-105269800D01*
X153779448Y-105269800D02*
X153827067Y-105174561D01*
X153827067Y-105174561D02*
X153827067Y-104793609D01*
X153827067Y-104793609D02*
X153779448Y-104698371D01*
X153779448Y-104698371D02*
X153684210Y-104650752D01*
X153684210Y-104650752D02*
X153493734Y-104650752D01*
X153493734Y-104650752D02*
X153398496Y-104698371D01*
X153398496Y-104698371D02*
X153350877Y-104793609D01*
X153350877Y-104793609D02*
X153350877Y-104888847D01*
X153350877Y-104888847D02*
X153827067Y-104984085D01*
X152922305Y-105317419D02*
X152922305Y-104650752D01*
X152922305Y-104841228D02*
X152874686Y-104745990D01*
X152874686Y-104745990D02*
X152827067Y-104698371D01*
X152827067Y-104698371D02*
X152731829Y-104650752D01*
X152731829Y-104650752D02*
X152636591Y-104650752D01*
X151922305Y-105269800D02*
X152017543Y-105317419D01*
X152017543Y-105317419D02*
X152208019Y-105317419D01*
X152208019Y-105317419D02*
X152303257Y-105269800D01*
X152303257Y-105269800D02*
X152350876Y-105174561D01*
X152350876Y-105174561D02*
X152350876Y-104793609D01*
X152350876Y-104793609D02*
X152303257Y-104698371D01*
X152303257Y-104698371D02*
X152208019Y-104650752D01*
X152208019Y-104650752D02*
X152017543Y-104650752D01*
X152017543Y-104650752D02*
X151922305Y-104698371D01*
X151922305Y-104698371D02*
X151874686Y-104793609D01*
X151874686Y-104793609D02*
X151874686Y-104888847D01*
X151874686Y-104888847D02*
X152350876Y-104984085D01*
X102438283Y-104971809D02*
X102295426Y-105019428D01*
X102295426Y-105019428D02*
X102247807Y-105067047D01*
X102247807Y-105067047D02*
X102200188Y-105162285D01*
X102200188Y-105162285D02*
X102200188Y-105305142D01*
X102200188Y-105305142D02*
X102247807Y-105400380D01*
X102247807Y-105400380D02*
X102295426Y-105448000D01*
X102295426Y-105448000D02*
X102390664Y-105495619D01*
X102390664Y-105495619D02*
X102771616Y-105495619D01*
X102771616Y-105495619D02*
X102771616Y-104495619D01*
X102771616Y-104495619D02*
X102438283Y-104495619D01*
X102438283Y-104495619D02*
X102343045Y-104543238D01*
X102343045Y-104543238D02*
X102295426Y-104590857D01*
X102295426Y-104590857D02*
X102247807Y-104686095D01*
X102247807Y-104686095D02*
X102247807Y-104781333D01*
X102247807Y-104781333D02*
X102295426Y-104876571D01*
X102295426Y-104876571D02*
X102343045Y-104924190D01*
X102343045Y-104924190D02*
X102438283Y-104971809D01*
X102438283Y-104971809D02*
X102771616Y-104971809D01*
X101581140Y-104495619D02*
X101390664Y-104495619D01*
X101390664Y-104495619D02*
X101295426Y-104543238D01*
X101295426Y-104543238D02*
X101200188Y-104638476D01*
X101200188Y-104638476D02*
X101152569Y-104828952D01*
X101152569Y-104828952D02*
X101152569Y-105162285D01*
X101152569Y-105162285D02*
X101200188Y-105352761D01*
X101200188Y-105352761D02*
X101295426Y-105448000D01*
X101295426Y-105448000D02*
X101390664Y-105495619D01*
X101390664Y-105495619D02*
X101581140Y-105495619D01*
X101581140Y-105495619D02*
X101676378Y-105448000D01*
X101676378Y-105448000D02*
X101771616Y-105352761D01*
X101771616Y-105352761D02*
X101819235Y-105162285D01*
X101819235Y-105162285D02*
X101819235Y-104828952D01*
X101819235Y-104828952D02*
X101771616Y-104638476D01*
X101771616Y-104638476D02*
X101676378Y-104543238D01*
X101676378Y-104543238D02*
X101581140Y-104495619D01*
X100533521Y-104495619D02*
X100343045Y-104495619D01*
X100343045Y-104495619D02*
X100247807Y-104543238D01*
X100247807Y-104543238D02*
X100152569Y-104638476D01*
X100152569Y-104638476D02*
X100104950Y-104828952D01*
X100104950Y-104828952D02*
X100104950Y-105162285D01*
X100104950Y-105162285D02*
X100152569Y-105352761D01*
X100152569Y-105352761D02*
X100247807Y-105448000D01*
X100247807Y-105448000D02*
X100343045Y-105495619D01*
X100343045Y-105495619D02*
X100533521Y-105495619D01*
X100533521Y-105495619D02*
X100628759Y-105448000D01*
X100628759Y-105448000D02*
X100723997Y-105352761D01*
X100723997Y-105352761D02*
X100771616Y-105162285D01*
X100771616Y-105162285D02*
X100771616Y-104828952D01*
X100771616Y-104828952D02*
X100723997Y-104638476D01*
X100723997Y-104638476D02*
X100628759Y-104543238D01*
X100628759Y-104543238D02*
X100533521Y-104495619D01*
X99819235Y-104495619D02*
X99247807Y-104495619D01*
X99533521Y-105495619D02*
X99533521Y-104495619D01*
D13*
%TO.C,C6*%
X157950000Y-108754420D02*
X157950000Y-109035580D01*
X158970000Y-108754420D02*
X158970000Y-109035580D01*
%TO.C,D48*%
X224265000Y-104265000D02*
X225735000Y-104265000D01*
X224265000Y-106550000D02*
X224265000Y-104265000D01*
X225735000Y-104265000D02*
X225735000Y-106550000D01*
%TO.C,D43*%
X62265000Y-104265000D02*
X63735000Y-104265000D01*
X62265000Y-106550000D02*
X62265000Y-104265000D01*
X63735000Y-104265000D02*
X63735000Y-106550000D01*
%TO.C,D7*%
X26265000Y-50265000D02*
X27735000Y-50265000D01*
X26265000Y-52550000D02*
X26265000Y-50265000D01*
X27735000Y-50265000D02*
X27735000Y-52550000D01*
%TO.C,D24*%
X120765000Y-68265000D02*
X122235000Y-68265000D01*
X120765000Y-70550000D02*
X120765000Y-68265000D01*
X122235000Y-68265000D02*
X122235000Y-70550000D01*
%TO.C,D42*%
X44265000Y-104265000D02*
X45735000Y-104265000D01*
X44265000Y-106550000D02*
X44265000Y-104265000D01*
X45735000Y-104265000D02*
X45735000Y-106550000D01*
%TO.C,D1*%
X35265000Y-32265000D02*
X36735000Y-32265000D01*
X35265000Y-34550000D02*
X35265000Y-32265000D01*
X36735000Y-32265000D02*
X36735000Y-34550000D01*
%TO.C,C2*%
X151510580Y-109615000D02*
X151229420Y-109615000D01*
X151510580Y-110635000D02*
X151229420Y-110635000D01*
%TO.C,D27*%
X174765000Y-68265000D02*
X176235000Y-68265000D01*
X174765000Y-70550000D02*
X174765000Y-68265000D01*
X176235000Y-68265000D02*
X176235000Y-70550000D01*
%TO.C,D31*%
X57765000Y-86265000D02*
X59235000Y-86265000D01*
X57765000Y-88550000D02*
X57765000Y-86265000D01*
X59235000Y-86265000D02*
X59235000Y-88550000D01*
%TO.C,D11*%
X98265000Y-50265000D02*
X99735000Y-50265000D01*
X98265000Y-52550000D02*
X98265000Y-50265000D01*
X99735000Y-50265000D02*
X99735000Y-52550000D01*
%TO.C,D37*%
X165765000Y-86265000D02*
X167235000Y-86265000D01*
X165765000Y-88550000D02*
X165765000Y-86265000D01*
X167235000Y-86265000D02*
X167235000Y-88550000D01*
%TO.C,D2*%
X53265000Y-32265000D02*
X54735000Y-32265000D01*
X53265000Y-34550000D02*
X53265000Y-32265000D01*
X54735000Y-32265000D02*
X54735000Y-34550000D01*
%TO.C,D21*%
X66765000Y-68265000D02*
X68235000Y-68265000D01*
X66765000Y-70550000D02*
X66765000Y-68265000D01*
X68235000Y-68265000D02*
X68235000Y-70550000D01*
%TO.C,D9*%
X62265000Y-50265000D02*
X63735000Y-50265000D01*
X62265000Y-52550000D02*
X62265000Y-50265000D01*
X63735000Y-50265000D02*
X63735000Y-52550000D01*
%TO.C,D6*%
X125265000Y-32265000D02*
X126735000Y-32265000D01*
X125265000Y-34550000D02*
X125265000Y-32265000D01*
X126735000Y-32265000D02*
X126735000Y-34550000D01*
D14*
%TO.C,SW2*%
X96089300Y-105750200D02*
X101550300Y-105750200D01*
X101550300Y-111211200D02*
X96089300Y-111211200D01*
D13*
%TO.C,D38*%
X183765000Y-86265000D02*
X185235000Y-86265000D01*
X183765000Y-88550000D02*
X183765000Y-86265000D01*
X185235000Y-86265000D02*
X185235000Y-88550000D01*
%TO.C,D39*%
X201765000Y-86265000D02*
X203235000Y-86265000D01*
X201765000Y-88550000D02*
X201765000Y-86265000D01*
X203235000Y-86265000D02*
X203235000Y-88550000D01*
%TO.C,D17*%
X206265000Y-50265000D02*
X207735000Y-50265000D01*
X206265000Y-52550000D02*
X206265000Y-50265000D01*
X207735000Y-50265000D02*
X207735000Y-52550000D01*
%TO.C,D19*%
X28515000Y-68265000D02*
X29985000Y-68265000D01*
X28515000Y-70550000D02*
X28515000Y-68265000D01*
X29985000Y-68265000D02*
X29985000Y-70550000D01*
%TO.C,D25*%
X138765000Y-68265000D02*
X140235000Y-68265000D01*
X138765000Y-70550000D02*
X138765000Y-68265000D01*
X140235000Y-68265000D02*
X140235000Y-70550000D01*
D15*
%TO.C,G\u002A\u002A\u002A*%
G36*
X227118710Y-93853652D02*
G01*
X227328734Y-93854985D01*
X227487681Y-93856376D01*
X227693568Y-93858510D01*
X227857862Y-93860906D01*
X227985683Y-93863863D01*
X228082152Y-93867680D01*
X228152388Y-93872656D01*
X228201513Y-93879089D01*
X228234645Y-93887279D01*
X228256905Y-93897525D01*
X228273414Y-93910124D01*
X228316933Y-93974854D01*
X228319350Y-94052170D01*
X228276010Y-94125000D01*
X228270028Y-94130744D01*
X228254495Y-94142355D01*
X228232730Y-94151737D01*
X228199862Y-94159127D01*
X228151025Y-94164761D01*
X228081350Y-94168878D01*
X227985967Y-94171715D01*
X227860010Y-94173508D01*
X227698608Y-94174495D01*
X227496895Y-94174913D01*
X227250000Y-94175000D01*
X227137865Y-94174988D01*
X226911017Y-94174787D01*
X226727254Y-94174153D01*
X226581708Y-94172848D01*
X226469509Y-94170635D01*
X226385790Y-94167277D01*
X226325682Y-94162536D01*
X226284317Y-94156175D01*
X226256825Y-94147957D01*
X226238339Y-94137644D01*
X226223991Y-94125000D01*
X226197214Y-94091096D01*
X226178019Y-94019886D01*
X226200813Y-93951883D01*
X226260998Y-93896370D01*
X226353974Y-93862629D01*
X226389239Y-93859715D01*
X226471295Y-93856971D01*
X226591595Y-93854943D01*
X226743815Y-93853681D01*
X226921629Y-93853234D01*
X227118710Y-93853652D01*
G37*
G36*
X229746886Y-95192686D02*
G01*
X229723345Y-95314436D01*
X229664360Y-95426878D01*
X229577243Y-95517165D01*
X229469304Y-95572453D01*
X229458695Y-95574110D01*
X229400105Y-95577755D01*
X229296289Y-95581217D01*
X229150593Y-95584456D01*
X228966363Y-95587437D01*
X228746944Y-95590120D01*
X228495683Y-95592467D01*
X228215925Y-95594441D01*
X227911017Y-95596004D01*
X227584304Y-95597118D01*
X227239133Y-95597745D01*
X227226045Y-95597759D01*
X226850285Y-95598137D01*
X226521190Y-95598385D01*
X226235482Y-95598428D01*
X225989883Y-95598192D01*
X225781117Y-95597602D01*
X225605905Y-95596585D01*
X225460969Y-95595067D01*
X225343033Y-95592972D01*
X225248819Y-95590227D01*
X225175049Y-95586759D01*
X225118446Y-95582492D01*
X225075732Y-95577352D01*
X225043629Y-95571266D01*
X225018861Y-95564159D01*
X224998148Y-95555958D01*
X224978215Y-95546587D01*
X224952420Y-95532927D01*
X224849872Y-95448364D01*
X224781280Y-95338170D01*
X224751794Y-95213557D01*
X224751926Y-95212413D01*
X225106899Y-95212413D01*
X225112851Y-95218489D01*
X225129440Y-95224434D01*
X225159480Y-95229596D01*
X225206023Y-95234029D01*
X225272117Y-95237785D01*
X225360813Y-95240919D01*
X225475160Y-95243484D01*
X225618208Y-95245534D01*
X225793006Y-95247121D01*
X226002605Y-95248300D01*
X226250055Y-95249124D01*
X226538404Y-95249646D01*
X226870702Y-95249920D01*
X227250000Y-95250000D01*
X227628193Y-95250035D01*
X227963663Y-95250024D01*
X228255024Y-95249785D01*
X228505262Y-95249136D01*
X228717365Y-95247895D01*
X228894318Y-95245880D01*
X229039107Y-95242910D01*
X229154720Y-95238804D01*
X229244141Y-95233378D01*
X229310357Y-95226453D01*
X229356356Y-95217845D01*
X229385122Y-95207374D01*
X229399642Y-95194858D01*
X229402903Y-95180114D01*
X229397890Y-95162961D01*
X229387590Y-95143218D01*
X229374990Y-95120703D01*
X229367278Y-95106444D01*
X229329574Y-95038856D01*
X229271281Y-94936132D01*
X229194677Y-94802195D01*
X229102043Y-94640967D01*
X228995660Y-94456369D01*
X228877808Y-94252324D01*
X228750767Y-94032755D01*
X228616817Y-93801582D01*
X228478240Y-93562728D01*
X228337315Y-93320116D01*
X228196323Y-93077666D01*
X228057543Y-92839302D01*
X227923258Y-92608945D01*
X227795746Y-92390518D01*
X227677288Y-92187941D01*
X227570165Y-92005139D01*
X227476656Y-91846032D01*
X227399043Y-91714542D01*
X227339606Y-91614592D01*
X227300624Y-91550104D01*
X227284379Y-91525000D01*
X227266464Y-91508982D01*
X227239077Y-91504800D01*
X227204593Y-91539076D01*
X227180245Y-91574639D01*
X227133713Y-91649377D01*
X227067908Y-91758573D01*
X226985049Y-91898341D01*
X226887354Y-92064795D01*
X226777043Y-92254051D01*
X226656335Y-92462222D01*
X226527449Y-92685423D01*
X226392603Y-92919768D01*
X226254016Y-93161372D01*
X226113908Y-93406348D01*
X225974497Y-93650812D01*
X225838002Y-93890878D01*
X225706642Y-94122659D01*
X225582636Y-94342271D01*
X225468204Y-94545828D01*
X225365563Y-94729444D01*
X225276933Y-94889233D01*
X225204532Y-95021310D01*
X225150581Y-95121790D01*
X225117296Y-95186786D01*
X225106899Y-95212413D01*
X224751926Y-95212413D01*
X224766562Y-95085738D01*
X224767127Y-95084045D01*
X224786887Y-95042045D01*
X224829414Y-94961500D01*
X224892445Y-94846315D01*
X224973718Y-94700393D01*
X225070972Y-94527642D01*
X225181943Y-94331965D01*
X225304369Y-94117269D01*
X225435989Y-93887458D01*
X225574539Y-93646437D01*
X225717758Y-93398113D01*
X225863383Y-93146389D01*
X226009152Y-92895171D01*
X226152803Y-92648365D01*
X226292073Y-92409875D01*
X226424700Y-92183607D01*
X226548421Y-91973466D01*
X226660975Y-91783357D01*
X226760099Y-91617185D01*
X226843531Y-91478856D01*
X226909008Y-91372275D01*
X226954268Y-91301347D01*
X226977050Y-91269977D01*
X227033086Y-91225546D01*
X227154205Y-91173040D01*
X227284083Y-91162962D01*
X227411094Y-91195310D01*
X227523613Y-91270082D01*
X227524671Y-91271150D01*
X227550500Y-91306970D01*
X227598524Y-91382075D01*
X227666480Y-91492548D01*
X227752107Y-91634473D01*
X227853143Y-91803933D01*
X227967327Y-91997012D01*
X228092396Y-92209792D01*
X228226089Y-92438359D01*
X228366145Y-92678794D01*
X228510301Y-92927182D01*
X228656296Y-93179606D01*
X228801868Y-93432149D01*
X228944756Y-93680895D01*
X229082697Y-93921927D01*
X229213431Y-94151330D01*
X229334694Y-94365185D01*
X229444227Y-94559577D01*
X229539766Y-94730589D01*
X229619050Y-94874305D01*
X229679817Y-94986808D01*
X229719806Y-95064181D01*
X229736756Y-95102508D01*
X229745474Y-95180114D01*
X229746886Y-95192686D01*
G37*
D13*
%TO.C,C10*%
X114135200Y-110051280D02*
X114135200Y-109770120D01*
X115155200Y-110051280D02*
X115155200Y-109770120D01*
%TO.C,D30*%
X33015000Y-86265000D02*
X34485000Y-86265000D01*
X33015000Y-88550000D02*
X33015000Y-86265000D01*
X34485000Y-86265000D02*
X34485000Y-88550000D01*
%TO.C,U1*%
X150300000Y-100575000D02*
X150300000Y-101025000D01*
X150300000Y-107345000D02*
X150300000Y-107795000D01*
X150300000Y-107795000D02*
X150750000Y-107795000D01*
X150750000Y-100575000D02*
X150300000Y-100575000D01*
X157070000Y-107795000D02*
X157520000Y-107795000D01*
X157520000Y-100575000D02*
X157070000Y-100575000D01*
X157520000Y-101025000D02*
X157520000Y-100575000D01*
X157520000Y-107795000D02*
X157520000Y-107345000D01*
X157540000Y-108775000D02*
X157070000Y-108435000D01*
X157540000Y-108095000D01*
X157540000Y-108775000D01*
G36*
X157540000Y-108775000D02*
G01*
X157070000Y-108435000D01*
X157540000Y-108095000D01*
X157540000Y-108775000D01*
G37*
%TO.C,D4*%
X89265000Y-32265000D02*
X90735000Y-32265000D01*
X89265000Y-34550000D02*
X89265000Y-32265000D01*
X90735000Y-32265000D02*
X90735000Y-34550000D01*
%TO.C,D45*%
X134265000Y-104265000D02*
X135735000Y-104265000D01*
X134265000Y-106550000D02*
X134265000Y-104265000D01*
X135735000Y-104265000D02*
X135735000Y-106550000D01*
%TO.C,D12*%
X116265000Y-50265000D02*
X117735000Y-50265000D01*
X116265000Y-52550000D02*
X116265000Y-50265000D01*
X117735000Y-50265000D02*
X117735000Y-52550000D01*
%TO.C,D3*%
X71265000Y-32265000D02*
X72735000Y-32265000D01*
X71265000Y-34550000D02*
X71265000Y-32265000D01*
X72735000Y-32265000D02*
X72735000Y-34550000D01*
%TO.C,D14*%
X152265000Y-50265000D02*
X153735000Y-50265000D01*
X152265000Y-52550000D02*
X152265000Y-50265000D01*
X153735000Y-50265000D02*
X153735000Y-52550000D01*
%TO.C,D47*%
X206265000Y-104265000D02*
X207735000Y-104265000D01*
X206265000Y-106550000D02*
X206265000Y-104265000D01*
X207735000Y-104265000D02*
X207735000Y-106550000D01*
%TO.C,D10*%
X80265000Y-50265000D02*
X81735000Y-50265000D01*
X80265000Y-52550000D02*
X80265000Y-50265000D01*
X81735000Y-50265000D02*
X81735000Y-52550000D01*
%TO.C,C5*%
X159480000Y-108754420D02*
X159480000Y-109035580D01*
X160500000Y-108754420D02*
X160500000Y-109035580D01*
%TO.C,D29*%
X217515000Y-68265000D02*
X218985000Y-68265000D01*
X217515000Y-70550000D02*
X217515000Y-68265000D01*
X218985000Y-68265000D02*
X218985000Y-70550000D01*
%TO.C,C8*%
X126956920Y-63945000D02*
X127238080Y-63945000D01*
X126956920Y-64965000D02*
X127238080Y-64965000D01*
D14*
%TO.C,SW1*%
X106804700Y-105750200D02*
X112265700Y-105750200D01*
X112265700Y-111211200D02*
X106804700Y-111211200D01*
D13*
%TO.C,U3*%
X126617500Y-58865000D02*
X126617500Y-58915000D01*
X126617500Y-60035000D02*
X126617500Y-60815000D01*
X126617500Y-61935000D02*
X126617500Y-61985000D01*
X126617500Y-61985000D02*
X128437500Y-61985000D01*
X128437500Y-58865000D02*
X126617500Y-58865000D01*
X128437500Y-59865000D02*
X128437500Y-58865000D01*
X128437500Y-61985000D02*
X128437500Y-60985000D01*
X126077500Y-60805000D02*
X125837500Y-60475000D01*
X126317500Y-60475000D01*
X126077500Y-60805000D01*
G36*
X126077500Y-60805000D02*
G01*
X125837500Y-60475000D01*
X126317500Y-60475000D01*
X126077500Y-60805000D01*
G37*
D16*
%TO.C,J2*%
X119547500Y-54895000D02*
X119547500Y-58895000D01*
X121347500Y-59895000D02*
X123747500Y-59895000D01*
X123747500Y-53895000D02*
X121347500Y-53895000D01*
X123747500Y-54895000D02*
X123747500Y-53895000D01*
X123747500Y-59895000D02*
X123747500Y-58895000D01*
D13*
%TO.C,D5*%
X107265000Y-32265000D02*
X108735000Y-32265000D01*
X107265000Y-34550000D02*
X107265000Y-32265000D01*
X108735000Y-32265000D02*
X108735000Y-34550000D01*
%TO.C,C3*%
X148750580Y-99725000D02*
X148469420Y-99725000D01*
X148750580Y-100745000D02*
X148469420Y-100745000D01*
%TO.C,D18*%
X224265000Y-50265000D02*
X225735000Y-50265000D01*
X224265000Y-52550000D02*
X224265000Y-50265000D01*
X225735000Y-50265000D02*
X225735000Y-52550000D01*
%TO.C,D44*%
X80265000Y-104265000D02*
X81735000Y-104265000D01*
X80265000Y-106550000D02*
X80265000Y-104265000D01*
X81735000Y-104265000D02*
X81735000Y-106550000D01*
%TO.C,D20*%
X48765000Y-68265000D02*
X50235000Y-68265000D01*
X48765000Y-70550000D02*
X48765000Y-68265000D01*
X50235000Y-68265000D02*
X50235000Y-70550000D01*
%TO.C,D8*%
X44265000Y-50265000D02*
X45735000Y-50265000D01*
X44265000Y-52550000D02*
X44265000Y-50265000D01*
X45735000Y-50265000D02*
X45735000Y-52550000D01*
%TO.C,D40*%
X222015000Y-86265000D02*
X223485000Y-86265000D01*
X222015000Y-88550000D02*
X222015000Y-86265000D01*
X223485000Y-86265000D02*
X223485000Y-88550000D01*
%TO.C,U4*%
X127417500Y-55345000D02*
X127417500Y-55395000D01*
X127417500Y-58415000D02*
X127417500Y-58465000D01*
X127417500Y-58465000D02*
X129237500Y-58465000D01*
X129237500Y-55345000D02*
X127417500Y-55345000D01*
X129237500Y-55395000D02*
X129237500Y-55345000D01*
X129237500Y-58465000D02*
X129237500Y-58415000D01*
X129777500Y-55395000D02*
X129537500Y-55065000D01*
X130017500Y-55065000D01*
X129777500Y-55395000D01*
G36*
X129777500Y-55395000D02*
G01*
X129537500Y-55065000D01*
X130017500Y-55065000D01*
X129777500Y-55395000D01*
G37*
%TO.C,D46*%
X188265000Y-104265000D02*
X189735000Y-104265000D01*
X188265000Y-106550000D02*
X188265000Y-104265000D01*
X189735000Y-104265000D02*
X189735000Y-106550000D01*
%TO.C,C4*%
X158469420Y-99135000D02*
X158750580Y-99135000D01*
X158469420Y-100155000D02*
X158750580Y-100155000D01*
%TO.C,C7*%
X126956920Y-62415000D02*
X127238080Y-62415000D01*
X126956920Y-63435000D02*
X127238080Y-63435000D01*
%TO.C,D26*%
X156765000Y-68265000D02*
X158235000Y-68265000D01*
X156765000Y-70550000D02*
X156765000Y-68265000D01*
X158235000Y-68265000D02*
X158235000Y-70550000D01*
%TO.C,C9*%
X131268080Y-58695000D02*
X130986920Y-58695000D01*
X131268080Y-59715000D02*
X130986920Y-59715000D01*
%TO.C,D13*%
X134265000Y-50265000D02*
X135735000Y-50265000D01*
X134265000Y-52550000D02*
X134265000Y-50265000D01*
X135735000Y-50265000D02*
X135735000Y-52550000D01*
%TO.C,D32*%
X75765000Y-86265000D02*
X77235000Y-86265000D01*
X75765000Y-88550000D02*
X75765000Y-86265000D01*
X77235000Y-86265000D02*
X77235000Y-88550000D01*
%TO.C,D16*%
X188265000Y-50265000D02*
X189735000Y-50265000D01*
X188265000Y-52550000D02*
X188265000Y-50265000D01*
X189735000Y-50265000D02*
X189735000Y-52550000D01*
%TO.C,D33*%
X93765000Y-86265000D02*
X95235000Y-86265000D01*
X93765000Y-88550000D02*
X93765000Y-86265000D01*
X95235000Y-86265000D02*
X95235000Y-88550000D01*
%TO.C,D28*%
X192765000Y-68265000D02*
X194235000Y-68265000D01*
X192765000Y-70550000D02*
X192765000Y-68265000D01*
X194235000Y-68265000D02*
X194235000Y-70550000D01*
%TO.C,D41*%
X26265000Y-104265000D02*
X27735000Y-104265000D01*
X26265000Y-106550000D02*
X26265000Y-104265000D01*
X27735000Y-104265000D02*
X27735000Y-106550000D01*
%TO.C,D36*%
X147765000Y-86265000D02*
X149235000Y-86265000D01*
X147765000Y-88550000D02*
X147765000Y-86265000D01*
X149235000Y-86265000D02*
X149235000Y-88550000D01*
%TO.C,R1*%
X103407300Y-110137958D02*
X103407300Y-109663442D01*
X104452300Y-110137958D02*
X104452300Y-109663442D01*
%TO.C,D22*%
X84765000Y-68265000D02*
X86235000Y-68265000D01*
X84765000Y-70550000D02*
X84765000Y-68265000D01*
X86235000Y-68265000D02*
X86235000Y-70550000D01*
%TO.C,D15*%
X170265000Y-50265000D02*
X171735000Y-50265000D01*
X170265000Y-52550000D02*
X170265000Y-50265000D01*
X171735000Y-50265000D02*
X171735000Y-52550000D01*
%TO.C,D23*%
X102765000Y-68265000D02*
X104235000Y-68265000D01*
X102765000Y-70550000D02*
X102765000Y-68265000D01*
X104235000Y-68265000D02*
X104235000Y-70550000D01*
%TO.C,D34*%
X111765000Y-86265000D02*
X113235000Y-86265000D01*
X111765000Y-88550000D02*
X111765000Y-86265000D01*
X113235000Y-86265000D02*
X113235000Y-88550000D01*
%TO.C,D35*%
X129765000Y-86265000D02*
X131235000Y-86265000D01*
X129765000Y-88550000D02*
X129765000Y-86265000D01*
X131235000Y-86265000D02*
X131235000Y-88550000D01*
%TD*%
%LPC*%
D17*
%TO.C,Ref\u002A\u002A*%
X84781200Y-18443119D03*
%TD*%
D18*
%TO.C,SW35*%
X86045000Y-84375000D03*
D19*
X91125000Y-84375000D03*
D18*
X96205000Y-84375000D03*
D19*
X86045000Y-80565000D03*
X91125000Y-80565000D03*
X96205000Y-80565000D03*
D20*
X91125000Y-89455000D03*
%TD*%
D21*
%TO.C,SW31*%
X204375000Y-63665000D03*
D17*
X204375000Y-72165000D03*
D18*
X209795000Y-66375000D03*
D19*
X214875000Y-66375000D03*
D18*
X219955000Y-66375000D03*
D21*
X225375000Y-63665000D03*
D17*
X225375000Y-72165000D03*
D19*
X209795000Y-62565000D03*
X214875000Y-62565000D03*
X219955000Y-62565000D03*
D20*
X214875000Y-71455000D03*
%TD*%
D18*
%TO.C,SW37*%
X122045000Y-84375000D03*
D19*
X127125000Y-84375000D03*
D18*
X132205000Y-84375000D03*
D19*
X122045000Y-80565000D03*
X127125000Y-80565000D03*
X132205000Y-80565000D03*
D20*
X127125000Y-89455000D03*
%TD*%
D21*
%TO.C,SW32*%
X19875000Y-81665000D03*
D17*
X19875000Y-90165000D03*
D18*
X25295000Y-84375000D03*
D19*
X30375000Y-84375000D03*
D18*
X35455000Y-84375000D03*
D21*
X40875000Y-81665000D03*
D17*
X40875000Y-90165000D03*
D19*
X25295000Y-80565000D03*
X30375000Y-80565000D03*
X35455000Y-80565000D03*
D20*
X30375000Y-89455000D03*
%TD*%
D18*
%TO.C,SW16*%
X144545000Y-48375000D03*
D19*
X149625000Y-48375000D03*
D18*
X154705000Y-48375000D03*
D19*
X144545000Y-44565000D03*
X149625000Y-44565000D03*
X154705000Y-44565000D03*
D20*
X149625000Y-53455000D03*
%TD*%
D18*
%TO.C,SW25*%
X95045000Y-66375000D03*
D19*
X100125000Y-66375000D03*
D18*
X105205000Y-66375000D03*
D19*
X95045000Y-62565000D03*
X100125000Y-62565000D03*
X105205000Y-62565000D03*
D20*
X100125000Y-71455000D03*
%TD*%
D18*
%TO.C,SW49*%
X198545000Y-102375000D03*
D19*
X203625000Y-102375000D03*
D18*
X208705000Y-102375000D03*
D19*
X198545000Y-98565000D03*
X203625000Y-98565000D03*
X208705000Y-98565000D03*
D20*
X203625000Y-107455000D03*
%TD*%
D18*
%TO.C,SW30*%
X185045000Y-66375000D03*
D19*
X190125000Y-66375000D03*
D18*
X195205000Y-66375000D03*
D19*
X185045000Y-62565000D03*
X190125000Y-62565000D03*
X195205000Y-62565000D03*
D20*
X190125000Y-71455000D03*
%TD*%
D18*
%TO.C,SW27*%
X131045000Y-66375000D03*
D19*
X136125000Y-66375000D03*
D18*
X141205000Y-66375000D03*
D19*
X131045000Y-62565000D03*
X136125000Y-62565000D03*
X141205000Y-62565000D03*
D20*
X136125000Y-71455000D03*
%TD*%
D18*
%TO.C,SW38*%
X140045000Y-84375000D03*
D19*
X145125000Y-84375000D03*
D18*
X150205000Y-84375000D03*
D19*
X140045000Y-80565000D03*
X145125000Y-80565000D03*
X150205000Y-80565000D03*
D20*
X145125000Y-89455000D03*
%TD*%
D18*
%TO.C,SW11*%
X54545000Y-48375000D03*
D19*
X59625000Y-48375000D03*
D18*
X64705000Y-48375000D03*
D19*
X54545000Y-44565000D03*
X59625000Y-44565000D03*
X64705000Y-44565000D03*
D20*
X59625000Y-53455000D03*
%TD*%
D18*
%TO.C,SW8*%
X117545000Y-30375000D03*
D19*
X122625000Y-30375000D03*
D18*
X127705000Y-30375000D03*
D19*
X117545000Y-26565000D03*
X122625000Y-26565000D03*
X127705000Y-26565000D03*
D20*
X122625000Y-35455000D03*
%TD*%
D18*
%TO.C,SW3*%
X27545000Y-30375000D03*
D19*
X32625000Y-30375000D03*
D18*
X37705000Y-30375000D03*
D19*
X27545000Y-26565000D03*
X32625000Y-26565000D03*
X37705000Y-26565000D03*
D20*
X32625000Y-35455000D03*
%TD*%
D18*
%TO.C,SW33*%
X50045000Y-84375000D03*
D19*
X55125000Y-84375000D03*
D18*
X60205000Y-84375000D03*
D19*
X50045000Y-80565000D03*
X55125000Y-80565000D03*
X60205000Y-80565000D03*
D20*
X55125000Y-89455000D03*
%TD*%
D18*
%TO.C,SW14*%
X108545000Y-48375000D03*
D19*
X113625000Y-48375000D03*
D18*
X118705000Y-48375000D03*
D19*
X108545000Y-44565000D03*
X113625000Y-44565000D03*
X118705000Y-44565000D03*
D20*
X113625000Y-53455000D03*
%TD*%
D18*
%TO.C,SW48*%
X180545000Y-102375000D03*
D19*
X185625000Y-102375000D03*
D18*
X190705000Y-102375000D03*
D19*
X180545000Y-98565000D03*
X185625000Y-98565000D03*
X190705000Y-98565000D03*
D20*
X185625000Y-107455000D03*
%TD*%
D18*
%TO.C,SW20*%
X216545000Y-48375000D03*
D19*
X221625000Y-48375000D03*
D18*
X226705000Y-48375000D03*
D19*
X216545000Y-44565000D03*
X221625000Y-44565000D03*
X226705000Y-44565000D03*
D20*
X221625000Y-53455000D03*
%TD*%
D18*
%TO.C,SW12*%
X72545000Y-48375000D03*
D19*
X77625000Y-48375000D03*
D18*
X82705000Y-48375000D03*
D19*
X72545000Y-44565000D03*
X77625000Y-44565000D03*
X82705000Y-44565000D03*
D20*
X77625000Y-53455000D03*
%TD*%
D18*
%TO.C,SW29*%
X167045000Y-66375000D03*
D19*
X172125000Y-66375000D03*
D18*
X177205000Y-66375000D03*
D19*
X167045000Y-62565000D03*
X172125000Y-62565000D03*
X177205000Y-62565000D03*
D20*
X172125000Y-71455000D03*
%TD*%
D18*
%TO.C,SW13*%
X90545000Y-48375000D03*
D19*
X95625000Y-48375000D03*
D18*
X100705000Y-48375000D03*
D19*
X90545000Y-44565000D03*
X95625000Y-44565000D03*
X100705000Y-44565000D03*
D20*
X95625000Y-53455000D03*
%TD*%
D18*
%TO.C,SW7*%
X99545000Y-30375000D03*
D19*
X104625000Y-30375000D03*
D18*
X109705000Y-30375000D03*
D19*
X99545000Y-26565000D03*
X104625000Y-26565000D03*
X109705000Y-26565000D03*
D20*
X104625000Y-35455000D03*
%TD*%
D18*
%TO.C,SW26*%
X113045000Y-66375000D03*
D19*
X118125000Y-66375000D03*
D18*
X123205000Y-66375000D03*
D19*
X113045000Y-62565000D03*
X118125000Y-62565000D03*
X123205000Y-62565000D03*
D20*
X118125000Y-71455000D03*
%TD*%
D18*
%TO.C,SW9*%
X18545000Y-48375000D03*
D19*
X23625000Y-48375000D03*
D18*
X28705000Y-48375000D03*
D19*
X18545000Y-44565000D03*
X23625000Y-44565000D03*
X28705000Y-44565000D03*
D20*
X23625000Y-53455000D03*
%TD*%
D18*
%TO.C,SW28*%
X149045000Y-66375000D03*
D19*
X154125000Y-66375000D03*
D18*
X159205000Y-66375000D03*
D19*
X149045000Y-62565000D03*
X154125000Y-62565000D03*
X159205000Y-62565000D03*
D20*
X154125000Y-71455000D03*
%TD*%
D18*
%TO.C,SW40*%
X176045000Y-84375000D03*
D19*
X181125000Y-84375000D03*
D18*
X186205000Y-84375000D03*
D19*
X176045000Y-80565000D03*
X181125000Y-80565000D03*
X186205000Y-80565000D03*
D20*
X181125000Y-89455000D03*
%TD*%
D18*
%TO.C,SW36*%
X104045000Y-84375000D03*
D19*
X109125000Y-84375000D03*
D18*
X114205000Y-84375000D03*
D19*
X104045000Y-80565000D03*
X109125000Y-80565000D03*
X114205000Y-80565000D03*
D20*
X109125000Y-89455000D03*
%TD*%
D17*
%TO.C,Ref\u002A\u002A*%
X169483800Y-115581881D03*
%TD*%
D18*
%TO.C,SW5*%
X63545000Y-30375000D03*
D19*
X68625000Y-30375000D03*
D18*
X73705000Y-30375000D03*
D19*
X63545000Y-26565000D03*
X68625000Y-26565000D03*
X73705000Y-26565000D03*
D20*
X68625000Y-35455000D03*
%TD*%
D18*
%TO.C,SW22*%
X41045000Y-66375000D03*
D19*
X46125000Y-66375000D03*
D18*
X51205000Y-66375000D03*
D19*
X41045000Y-62565000D03*
X46125000Y-62565000D03*
X51205000Y-62565000D03*
D20*
X46125000Y-71455000D03*
%TD*%
D18*
%TO.C,SW34*%
X68045000Y-84375000D03*
D19*
X73125000Y-84375000D03*
D18*
X78205000Y-84375000D03*
D19*
X68045000Y-80565000D03*
X73125000Y-80565000D03*
X78205000Y-80565000D03*
D20*
X73125000Y-89455000D03*
%TD*%
D17*
%TO.C,Ref\u002A\u002A*%
X214468800Y-36443122D03*
%TD*%
D18*
%TO.C,SW15*%
X126545000Y-48375000D03*
D19*
X131625000Y-48375000D03*
D18*
X136705000Y-48375000D03*
D19*
X126545000Y-44565000D03*
X131625000Y-44565000D03*
X136705000Y-44565000D03*
D20*
X131625000Y-53455000D03*
%TD*%
D18*
%TO.C,SW10*%
X36545000Y-48375000D03*
D19*
X41625000Y-48375000D03*
D18*
X46705000Y-48375000D03*
D19*
X36545000Y-44565000D03*
X41625000Y-44565000D03*
X46705000Y-44565000D03*
D20*
X41625000Y-53455000D03*
%TD*%
D18*
%TO.C,SW21*%
X20795000Y-66375000D03*
D19*
X25875000Y-66375000D03*
D18*
X30955000Y-66375000D03*
D19*
X20795000Y-62565000D03*
X25875000Y-62565000D03*
X30955000Y-62565000D03*
D20*
X25875000Y-71455000D03*
%TD*%
D17*
%TO.C,Ref\u002A\u002A*%
X30781200Y-18443119D03*
%TD*%
%TO.C,Ref\u002A\u002A*%
X84816200Y-115581878D03*
%TD*%
%TO.C,Ref\u002A\u002A*%
X30786200Y-115581878D03*
%TD*%
D18*
%TO.C,SW24*%
X77045000Y-66375000D03*
D19*
X82125000Y-66375000D03*
D18*
X87205000Y-66375000D03*
D19*
X77045000Y-62565000D03*
X82125000Y-62565000D03*
X87205000Y-62565000D03*
D20*
X82125000Y-71455000D03*
%TD*%
D18*
%TO.C,SW42*%
X214295000Y-84375000D03*
D19*
X219375000Y-84375000D03*
D18*
X224455000Y-84375000D03*
D19*
X214295000Y-80565000D03*
X219375000Y-80565000D03*
X224455000Y-80565000D03*
D20*
X219375000Y-89455000D03*
%TD*%
D21*
%TO.C,SW47*%
X91625000Y-99665000D03*
D17*
X91625000Y-108165000D03*
D18*
X126545000Y-102375000D03*
D19*
X131625000Y-102375000D03*
D18*
X136705000Y-102375000D03*
D21*
X171625000Y-99665000D03*
D17*
X171625000Y-108165000D03*
D19*
X126545000Y-98565000D03*
X131625000Y-98565000D03*
X136705000Y-98565000D03*
D20*
X131625000Y-107455000D03*
%TD*%
D17*
%TO.C,Ref\u002A\u002A*%
X214463800Y-115591881D03*
%TD*%
D18*
%TO.C,SW46*%
X72545000Y-102375000D03*
D19*
X77625000Y-102375000D03*
D18*
X82705000Y-102375000D03*
D19*
X72545000Y-98565000D03*
X77625000Y-98565000D03*
X82705000Y-98565000D03*
D20*
X77625000Y-107455000D03*
%TD*%
D18*
%TO.C,SW19*%
X198545000Y-48375000D03*
D19*
X203625000Y-48375000D03*
D18*
X208705000Y-48375000D03*
D19*
X198545000Y-44565000D03*
X203625000Y-44565000D03*
X208705000Y-44565000D03*
D20*
X203625000Y-53455000D03*
%TD*%
D18*
%TO.C,SW17*%
X162545000Y-48375000D03*
D19*
X167625000Y-48375000D03*
D18*
X172705000Y-48375000D03*
D19*
X162545000Y-44565000D03*
X167625000Y-44565000D03*
X172705000Y-44565000D03*
D20*
X167625000Y-53455000D03*
%TD*%
D18*
%TO.C,SW41*%
X194045000Y-84375000D03*
D19*
X199125000Y-84375000D03*
D18*
X204205000Y-84375000D03*
D19*
X194045000Y-80565000D03*
X199125000Y-80565000D03*
X204205000Y-80565000D03*
D20*
X199125000Y-89455000D03*
%TD*%
D18*
%TO.C,SW39*%
X158045000Y-84375000D03*
D19*
X163125000Y-84375000D03*
D18*
X168205000Y-84375000D03*
D19*
X158045000Y-80565000D03*
X163125000Y-80565000D03*
X168205000Y-80565000D03*
D20*
X163125000Y-89455000D03*
%TD*%
D17*
%TO.C,Ref\u002A\u002A*%
X169468800Y-36443122D03*
%TD*%
D18*
%TO.C,SW50*%
X216545000Y-102375000D03*
D19*
X221625000Y-102375000D03*
D18*
X226705000Y-102375000D03*
D19*
X216545000Y-98565000D03*
X221625000Y-98565000D03*
X226705000Y-98565000D03*
D20*
X221625000Y-107455000D03*
%TD*%
D18*
%TO.C,SW43*%
X18545000Y-102375000D03*
D19*
X23625000Y-102375000D03*
D18*
X28705000Y-102375000D03*
D19*
X18545000Y-98565000D03*
X23625000Y-98565000D03*
X28705000Y-98565000D03*
D20*
X23625000Y-107455000D03*
%TD*%
D18*
%TO.C,SW18*%
X180545000Y-48375000D03*
D19*
X185625000Y-48375000D03*
D18*
X190705000Y-48375000D03*
D19*
X180545000Y-44565000D03*
X185625000Y-44565000D03*
X190705000Y-44565000D03*
D20*
X185625000Y-53455000D03*
%TD*%
D18*
%TO.C,SW45*%
X54545000Y-102375000D03*
D19*
X59625000Y-102375000D03*
D18*
X64705000Y-102375000D03*
D19*
X54545000Y-98565000D03*
X59625000Y-98565000D03*
X64705000Y-98565000D03*
D20*
X59625000Y-107455000D03*
%TD*%
D18*
%TO.C,SW44*%
X36545000Y-102375000D03*
D19*
X41625000Y-102375000D03*
D18*
X46705000Y-102375000D03*
D19*
X36545000Y-98565000D03*
X41625000Y-98565000D03*
X46705000Y-98565000D03*
D20*
X41625000Y-107455000D03*
%TD*%
D18*
%TO.C,SW23*%
X59045000Y-66375000D03*
D19*
X64125000Y-66375000D03*
D18*
X69205000Y-66375000D03*
D19*
X59045000Y-62565000D03*
X64125000Y-62565000D03*
X69205000Y-62565000D03*
D20*
X64125000Y-71455000D03*
%TD*%
D18*
%TO.C,SW4*%
X45545000Y-30375000D03*
D19*
X50625000Y-30375000D03*
D18*
X55705000Y-30375000D03*
D19*
X45545000Y-26565000D03*
X50625000Y-26565000D03*
X55705000Y-26565000D03*
D20*
X50625000Y-35455000D03*
%TD*%
D18*
%TO.C,SW6*%
X81545000Y-30375000D03*
D19*
X86625000Y-30375000D03*
D18*
X91705000Y-30375000D03*
D19*
X81545000Y-26565000D03*
X86625000Y-26565000D03*
X91705000Y-26565000D03*
D20*
X86625000Y-35455000D03*
%TD*%
D22*
%TO.C,C6*%
X158460000Y-108120000D03*
X158460000Y-109670000D03*
%TD*%
D23*
%TO.C,D48*%
X225000000Y-104962500D03*
X225000000Y-106537500D03*
%TD*%
%TO.C,D43*%
X63000000Y-104962500D03*
X63000000Y-106537500D03*
%TD*%
%TO.C,D7*%
X27000000Y-50962500D03*
X27000000Y-52537500D03*
%TD*%
%TO.C,D24*%
X121500000Y-68962500D03*
X121500000Y-70537500D03*
%TD*%
%TO.C,D42*%
X45000000Y-104962500D03*
X45000000Y-106537500D03*
%TD*%
%TO.C,D1*%
X36000000Y-32962500D03*
X36000000Y-34537500D03*
%TD*%
D24*
%TO.C,C2*%
X152145000Y-110125000D03*
X150595000Y-110125000D03*
%TD*%
D23*
%TO.C,D27*%
X175500000Y-68962500D03*
X175500000Y-70537500D03*
%TD*%
%TO.C,D31*%
X58500000Y-86962500D03*
X58500000Y-88537500D03*
%TD*%
%TO.C,D11*%
X99000000Y-50962500D03*
X99000000Y-52537500D03*
%TD*%
%TO.C,D37*%
X166500000Y-86962500D03*
X166500000Y-88537500D03*
%TD*%
%TO.C,D2*%
X54000000Y-32962500D03*
X54000000Y-34537500D03*
%TD*%
%TO.C,D21*%
X67500000Y-68962500D03*
X67500000Y-70537500D03*
%TD*%
%TO.C,D9*%
X63000000Y-50962500D03*
X63000000Y-52537500D03*
%TD*%
%TO.C,D6*%
X126000000Y-32962500D03*
X126000000Y-34537500D03*
%TD*%
D25*
%TO.C,SW2*%
X101919799Y-106630701D03*
X95719801Y-106630701D03*
X101919799Y-110330699D03*
X95719801Y-110330699D03*
%TD*%
D23*
%TO.C,D38*%
X184500000Y-86962500D03*
X184500000Y-88537500D03*
%TD*%
%TO.C,D39*%
X202500000Y-86962500D03*
X202500000Y-88537500D03*
%TD*%
%TO.C,D17*%
X207000000Y-50962500D03*
X207000000Y-52537500D03*
%TD*%
%TO.C,D19*%
X29250000Y-68962500D03*
X29250000Y-70537500D03*
%TD*%
%TO.C,D25*%
X139500000Y-68962500D03*
X139500000Y-70537500D03*
%TD*%
D26*
%TO.C,C10*%
X114645200Y-110685700D03*
X114645200Y-109135700D03*
%TD*%
D23*
%TO.C,D30*%
X33750000Y-86962500D03*
X33750000Y-88537500D03*
%TD*%
D27*
%TO.C,U1*%
X156660000Y-108347500D03*
X156160000Y-108347500D03*
X155660000Y-108347500D03*
X155160000Y-108347500D03*
X154660000Y-108347500D03*
X154160000Y-108347500D03*
X153660000Y-108347500D03*
X153160000Y-108347500D03*
X152660000Y-108347500D03*
X152160000Y-108347500D03*
X151660000Y-108347500D03*
X151160000Y-108347500D03*
D28*
X149747500Y-106935000D03*
X149747500Y-106435000D03*
X149747500Y-105935000D03*
X149747500Y-105435000D03*
X149747500Y-104935000D03*
X149747500Y-104435000D03*
X149747500Y-103935000D03*
X149747500Y-103435000D03*
X149747500Y-102935000D03*
X149747500Y-102435000D03*
X149747500Y-101935000D03*
X149747500Y-101435000D03*
D27*
X151160000Y-100022500D03*
X151660000Y-100022500D03*
X152160000Y-100022500D03*
X152660000Y-100022500D03*
X153160000Y-100022500D03*
X153660000Y-100022500D03*
X154160000Y-100022500D03*
X154660000Y-100022500D03*
X155160000Y-100022500D03*
X155660000Y-100022500D03*
X156160000Y-100022500D03*
X156660000Y-100022500D03*
D28*
X158072500Y-101435000D03*
X158072500Y-101935000D03*
X158072500Y-102435000D03*
X158072500Y-102935000D03*
X158072500Y-103435000D03*
X158072500Y-103935000D03*
X158072500Y-104435000D03*
X158072500Y-104935000D03*
X158072500Y-105435000D03*
X158072500Y-105935000D03*
X158072500Y-106435000D03*
X158072500Y-106935000D03*
%TD*%
D23*
%TO.C,D4*%
X90000000Y-32962500D03*
X90000000Y-34537500D03*
%TD*%
%TO.C,D45*%
X135000000Y-104962500D03*
X135000000Y-106537500D03*
%TD*%
%TO.C,D12*%
X117000000Y-50962500D03*
X117000000Y-52537500D03*
%TD*%
%TO.C,D3*%
X72000000Y-32962500D03*
X72000000Y-34537500D03*
%TD*%
%TO.C,D14*%
X153000000Y-50962500D03*
X153000000Y-52537500D03*
%TD*%
%TO.C,D47*%
X207000000Y-104962500D03*
X207000000Y-106537500D03*
%TD*%
%TO.C,D10*%
X81000000Y-50962500D03*
X81000000Y-52537500D03*
%TD*%
D22*
%TO.C,C5*%
X159990000Y-108120000D03*
X159990000Y-109670000D03*
%TD*%
D23*
%TO.C,D29*%
X218250000Y-68962500D03*
X218250000Y-70537500D03*
%TD*%
D29*
%TO.C,C8*%
X126322500Y-64455000D03*
X127872500Y-64455000D03*
%TD*%
D25*
%TO.C,SW1*%
X112635199Y-106630701D03*
X106435201Y-106630701D03*
X112635199Y-110330699D03*
X106435201Y-110330699D03*
%TD*%
D30*
%TO.C,U3*%
X126390000Y-61375000D03*
X126390000Y-59475000D03*
X128665000Y-60425000D03*
%TD*%
D31*
%TO.C,J2*%
X120247500Y-59695000D03*
X120247500Y-54095000D03*
D32*
X124122500Y-58395000D03*
X124122500Y-57395000D03*
X124122500Y-56395000D03*
X124122500Y-55395000D03*
%TD*%
D23*
%TO.C,D5*%
X108000000Y-32962500D03*
X108000000Y-34537500D03*
%TD*%
D24*
%TO.C,C3*%
X149385000Y-100235000D03*
X147835000Y-100235000D03*
%TD*%
D23*
%TO.C,D18*%
X225000000Y-50962500D03*
X225000000Y-52537500D03*
%TD*%
%TO.C,D44*%
X81000000Y-104962500D03*
X81000000Y-106537500D03*
%TD*%
%TO.C,D20*%
X49500000Y-68962500D03*
X49500000Y-70537500D03*
%TD*%
%TO.C,D8*%
X45000000Y-50962500D03*
X45000000Y-52537500D03*
%TD*%
%TO.C,D40*%
X222750000Y-86962500D03*
X222750000Y-88537500D03*
%TD*%
D33*
%TO.C,U4*%
X129465000Y-55955000D03*
X129465000Y-56905000D03*
X129465000Y-57855000D03*
X127190000Y-57855000D03*
X127190000Y-56905000D03*
X127190000Y-55955000D03*
%TD*%
D23*
%TO.C,D46*%
X189000000Y-104962500D03*
X189000000Y-106537500D03*
%TD*%
D29*
%TO.C,C4*%
X157835000Y-99645000D03*
X159385000Y-99645000D03*
%TD*%
%TO.C,C7*%
X126322500Y-62925000D03*
X127872500Y-62925000D03*
%TD*%
D23*
%TO.C,D26*%
X157500000Y-68962500D03*
X157500000Y-70537500D03*
%TD*%
D24*
%TO.C,C9*%
X131902500Y-59205000D03*
X130352500Y-59205000D03*
%TD*%
D23*
%TO.C,D13*%
X135000000Y-50962500D03*
X135000000Y-52537500D03*
%TD*%
%TO.C,D32*%
X76500000Y-86962500D03*
X76500000Y-88537500D03*
%TD*%
%TO.C,D16*%
X189000000Y-50962500D03*
X189000000Y-52537500D03*
%TD*%
%TO.C,D33*%
X94500000Y-86962500D03*
X94500000Y-88537500D03*
%TD*%
%TO.C,D28*%
X193500000Y-68962500D03*
X193500000Y-70537500D03*
%TD*%
%TO.C,D41*%
X27000000Y-104962500D03*
X27000000Y-106537500D03*
%TD*%
%TO.C,D36*%
X148500000Y-86962500D03*
X148500000Y-88537500D03*
%TD*%
D34*
%TO.C,R1*%
X103929800Y-110725700D03*
X103929800Y-109075700D03*
%TD*%
D23*
%TO.C,D22*%
X85500000Y-68962500D03*
X85500000Y-70537500D03*
%TD*%
%TO.C,D15*%
X171000000Y-50962500D03*
X171000000Y-52537500D03*
%TD*%
%TO.C,D23*%
X103500000Y-68962500D03*
X103500000Y-70537500D03*
%TD*%
%TO.C,D34*%
X112500000Y-86962500D03*
X112500000Y-88537500D03*
%TD*%
%TO.C,D35*%
X130500000Y-86962500D03*
X130500000Y-88537500D03*
%TD*%
%LPD*%
M02*
