%TF.GenerationSoftware,KiCad,Pcbnew,9.0.5*%
%TF.CreationDate,2026-03-30T21:36:02-07:00*%
%TF.ProjectId,MXLP V4N,4d584c50-2056-4344-9e2e-6b696361645f,0.1*%
%TF.SameCoordinates,Original*%
%TF.FileFunction,Soldermask,Bot*%
%TF.FilePolarity,Negative*%
%FSLAX46Y46*%
G04 Gerber Fmt 4.6, Leading zero omitted, Abs format (unit mm)*
G04 Created by KiCad (PCBNEW 9.0.5) date 2026-03-30 21:36:02*
%MOMM*%
%LPD*%
G01*
G04 APERTURE LIST*
G04 Aperture macros list*
%AMRoundRect*
0 Rectangle with rounded corners*
0 $1 Rounding radius*
0 $2 $3 $4 $5 $6 $7 $8 $9 X,Y pos of 4 corners*
0 Add a 4 corners polygon primitive as box body*
4,1,4,$2,$3,$4,$5,$6,$7,$8,$9,$2,$3,0*
0 Add four circle primitives for the rounded corners*
1,1,$1+$1,$2,$3*
1,1,$1+$1,$4,$5*
1,1,$1+$1,$6,$7*
1,1,$1+$1,$8,$9*
0 Add four rect primitives between the rounded corners*
20,1,$1+$1,$2,$3,$4,$5,0*
20,1,$1+$1,$4,$5,$6,$7,0*
20,1,$1+$1,$6,$7,$8,$9,0*
20,1,$1+$1,$8,$9,$2,$3,0*%
G04 Aperture macros list end*
%ADD10C,4.000000*%
%ADD11C,1.550000*%
%ADD12C,2.600000*%
%ADD13C,2.500000*%
%ADD14C,2.000000*%
%ADD15RoundRect,0.225000X-0.250000X0.225000X-0.250000X-0.225000X0.250000X-0.225000X0.250000X0.225000X0*%
%ADD16RoundRect,0.218750X-0.256250X0.218750X-0.256250X-0.218750X0.256250X-0.218750X0.256250X0.218750X0*%
%ADD17RoundRect,0.225000X0.225000X0.250000X-0.225000X0.250000X-0.225000X-0.250000X0.225000X-0.250000X0*%
%ADD18R,1.803400X1.092200*%
%ADD19RoundRect,0.225000X0.250000X-0.225000X0.250000X0.225000X-0.250000X0.225000X-0.250000X-0.225000X0*%
%ADD20RoundRect,0.075000X0.075000X-0.662500X0.075000X0.662500X-0.075000X0.662500X-0.075000X-0.662500X0*%
%ADD21RoundRect,0.075000X0.662500X-0.075000X0.662500X0.075000X-0.662500X0.075000X-0.662500X-0.075000X0*%
%ADD22RoundRect,0.225000X-0.225000X-0.250000X0.225000X-0.250000X0.225000X0.250000X-0.225000X0.250000X0*%
%ADD23RoundRect,0.150000X-0.512500X-0.150000X0.512500X-0.150000X0.512500X0.150000X-0.512500X0.150000X0*%
%ADD24R,1.800000X1.200000*%
%ADD25R,1.550000X0.600000*%
%ADD26RoundRect,0.150000X0.512500X0.150000X-0.512500X0.150000X-0.512500X-0.150000X0.512500X-0.150000X0*%
%ADD27RoundRect,0.200000X0.275000X-0.200000X0.275000X0.200000X-0.275000X0.200000X-0.275000X-0.200000X0*%
G04 APERTURE END LIST*
D10*
%TO.C,Ref\u002A\u002A*%
X84781200Y-18443119D03*
%TD*%
D11*
%TO.C,SW35*%
X86045000Y-84375000D03*
D12*
X91125000Y-84375000D03*
D11*
X96205000Y-84375000D03*
D12*
X86045000Y-80565000D03*
X91125000Y-80565000D03*
X96205000Y-80565000D03*
D13*
X91125000Y-89455000D03*
%TD*%
D14*
%TO.C,SW31*%
X204375000Y-63665000D03*
D10*
X204375000Y-72165000D03*
D11*
X209795000Y-66375000D03*
D12*
X214875000Y-66375000D03*
D11*
X219955000Y-66375000D03*
D14*
X225375000Y-63665000D03*
D10*
X225375000Y-72165000D03*
D12*
X209795000Y-62565000D03*
X214875000Y-62565000D03*
X219955000Y-62565000D03*
D13*
X214875000Y-71455000D03*
%TD*%
D11*
%TO.C,SW37*%
X122045000Y-84375000D03*
D12*
X127125000Y-84375000D03*
D11*
X132205000Y-84375000D03*
D12*
X122045000Y-80565000D03*
X127125000Y-80565000D03*
X132205000Y-80565000D03*
D13*
X127125000Y-89455000D03*
%TD*%
D14*
%TO.C,SW32*%
X19875000Y-81665000D03*
D10*
X19875000Y-90165000D03*
D11*
X25295000Y-84375000D03*
D12*
X30375000Y-84375000D03*
D11*
X35455000Y-84375000D03*
D14*
X40875000Y-81665000D03*
D10*
X40875000Y-90165000D03*
D12*
X25295000Y-80565000D03*
X30375000Y-80565000D03*
X35455000Y-80565000D03*
D13*
X30375000Y-89455000D03*
%TD*%
D11*
%TO.C,SW16*%
X144545000Y-48375000D03*
D12*
X149625000Y-48375000D03*
D11*
X154705000Y-48375000D03*
D12*
X144545000Y-44565000D03*
X149625000Y-44565000D03*
X154705000Y-44565000D03*
D13*
X149625000Y-53455000D03*
%TD*%
D11*
%TO.C,SW25*%
X95045000Y-66375000D03*
D12*
X100125000Y-66375000D03*
D11*
X105205000Y-66375000D03*
D12*
X95045000Y-62565000D03*
X100125000Y-62565000D03*
X105205000Y-62565000D03*
D13*
X100125000Y-71455000D03*
%TD*%
D11*
%TO.C,SW49*%
X198545000Y-102375000D03*
D12*
X203625000Y-102375000D03*
D11*
X208705000Y-102375000D03*
D12*
X198545000Y-98565000D03*
X203625000Y-98565000D03*
X208705000Y-98565000D03*
D13*
X203625000Y-107455000D03*
%TD*%
D11*
%TO.C,SW30*%
X185045000Y-66375000D03*
D12*
X190125000Y-66375000D03*
D11*
X195205000Y-66375000D03*
D12*
X185045000Y-62565000D03*
X190125000Y-62565000D03*
X195205000Y-62565000D03*
D13*
X190125000Y-71455000D03*
%TD*%
D11*
%TO.C,SW27*%
X131045000Y-66375000D03*
D12*
X136125000Y-66375000D03*
D11*
X141205000Y-66375000D03*
D12*
X131045000Y-62565000D03*
X136125000Y-62565000D03*
X141205000Y-62565000D03*
D13*
X136125000Y-71455000D03*
%TD*%
D11*
%TO.C,SW38*%
X140045000Y-84375000D03*
D12*
X145125000Y-84375000D03*
D11*
X150205000Y-84375000D03*
D12*
X140045000Y-80565000D03*
X145125000Y-80565000D03*
X150205000Y-80565000D03*
D13*
X145125000Y-89455000D03*
%TD*%
D11*
%TO.C,SW11*%
X54545000Y-48375000D03*
D12*
X59625000Y-48375000D03*
D11*
X64705000Y-48375000D03*
D12*
X54545000Y-44565000D03*
X59625000Y-44565000D03*
X64705000Y-44565000D03*
D13*
X59625000Y-53455000D03*
%TD*%
D11*
%TO.C,SW8*%
X117545000Y-30375000D03*
D12*
X122625000Y-30375000D03*
D11*
X127705000Y-30375000D03*
D12*
X117545000Y-26565000D03*
X122625000Y-26565000D03*
X127705000Y-26565000D03*
D13*
X122625000Y-35455000D03*
%TD*%
D11*
%TO.C,SW3*%
X27545000Y-30375000D03*
D12*
X32625000Y-30375000D03*
D11*
X37705000Y-30375000D03*
D12*
X27545000Y-26565000D03*
X32625000Y-26565000D03*
X37705000Y-26565000D03*
D13*
X32625000Y-35455000D03*
%TD*%
D11*
%TO.C,SW33*%
X50045000Y-84375000D03*
D12*
X55125000Y-84375000D03*
D11*
X60205000Y-84375000D03*
D12*
X50045000Y-80565000D03*
X55125000Y-80565000D03*
X60205000Y-80565000D03*
D13*
X55125000Y-89455000D03*
%TD*%
D11*
%TO.C,SW14*%
X108545000Y-48375000D03*
D12*
X113625000Y-48375000D03*
D11*
X118705000Y-48375000D03*
D12*
X108545000Y-44565000D03*
X113625000Y-44565000D03*
X118705000Y-44565000D03*
D13*
X113625000Y-53455000D03*
%TD*%
D11*
%TO.C,SW48*%
X180545000Y-102375000D03*
D12*
X185625000Y-102375000D03*
D11*
X190705000Y-102375000D03*
D12*
X180545000Y-98565000D03*
X185625000Y-98565000D03*
X190705000Y-98565000D03*
D13*
X185625000Y-107455000D03*
%TD*%
D11*
%TO.C,SW20*%
X216545000Y-48375000D03*
D12*
X221625000Y-48375000D03*
D11*
X226705000Y-48375000D03*
D12*
X216545000Y-44565000D03*
X221625000Y-44565000D03*
X226705000Y-44565000D03*
D13*
X221625000Y-53455000D03*
%TD*%
D11*
%TO.C,SW12*%
X72545000Y-48375000D03*
D12*
X77625000Y-48375000D03*
D11*
X82705000Y-48375000D03*
D12*
X72545000Y-44565000D03*
X77625000Y-44565000D03*
X82705000Y-44565000D03*
D13*
X77625000Y-53455000D03*
%TD*%
D11*
%TO.C,SW29*%
X167045000Y-66375000D03*
D12*
X172125000Y-66375000D03*
D11*
X177205000Y-66375000D03*
D12*
X167045000Y-62565000D03*
X172125000Y-62565000D03*
X177205000Y-62565000D03*
D13*
X172125000Y-71455000D03*
%TD*%
D11*
%TO.C,SW13*%
X90545000Y-48375000D03*
D12*
X95625000Y-48375000D03*
D11*
X100705000Y-48375000D03*
D12*
X90545000Y-44565000D03*
X95625000Y-44565000D03*
X100705000Y-44565000D03*
D13*
X95625000Y-53455000D03*
%TD*%
D11*
%TO.C,SW7*%
X99545000Y-30375000D03*
D12*
X104625000Y-30375000D03*
D11*
X109705000Y-30375000D03*
D12*
X99545000Y-26565000D03*
X104625000Y-26565000D03*
X109705000Y-26565000D03*
D13*
X104625000Y-35455000D03*
%TD*%
D11*
%TO.C,SW26*%
X113045000Y-66375000D03*
D12*
X118125000Y-66375000D03*
D11*
X123205000Y-66375000D03*
D12*
X113045000Y-62565000D03*
X118125000Y-62565000D03*
X123205000Y-62565000D03*
D13*
X118125000Y-71455000D03*
%TD*%
D11*
%TO.C,SW9*%
X18545000Y-48375000D03*
D12*
X23625000Y-48375000D03*
D11*
X28705000Y-48375000D03*
D12*
X18545000Y-44565000D03*
X23625000Y-44565000D03*
X28705000Y-44565000D03*
D13*
X23625000Y-53455000D03*
%TD*%
D11*
%TO.C,SW28*%
X149045000Y-66375000D03*
D12*
X154125000Y-66375000D03*
D11*
X159205000Y-66375000D03*
D12*
X149045000Y-62565000D03*
X154125000Y-62565000D03*
X159205000Y-62565000D03*
D13*
X154125000Y-71455000D03*
%TD*%
D11*
%TO.C,SW40*%
X176045000Y-84375000D03*
D12*
X181125000Y-84375000D03*
D11*
X186205000Y-84375000D03*
D12*
X176045000Y-80565000D03*
X181125000Y-80565000D03*
X186205000Y-80565000D03*
D13*
X181125000Y-89455000D03*
%TD*%
D11*
%TO.C,SW36*%
X104045000Y-84375000D03*
D12*
X109125000Y-84375000D03*
D11*
X114205000Y-84375000D03*
D12*
X104045000Y-80565000D03*
X109125000Y-80565000D03*
X114205000Y-80565000D03*
D13*
X109125000Y-89455000D03*
%TD*%
D10*
%TO.C,Ref\u002A\u002A*%
X169483800Y-115581881D03*
%TD*%
D11*
%TO.C,SW5*%
X63545000Y-30375000D03*
D12*
X68625000Y-30375000D03*
D11*
X73705000Y-30375000D03*
D12*
X63545000Y-26565000D03*
X68625000Y-26565000D03*
X73705000Y-26565000D03*
D13*
X68625000Y-35455000D03*
%TD*%
D11*
%TO.C,SW22*%
X41045000Y-66375000D03*
D12*
X46125000Y-66375000D03*
D11*
X51205000Y-66375000D03*
D12*
X41045000Y-62565000D03*
X46125000Y-62565000D03*
X51205000Y-62565000D03*
D13*
X46125000Y-71455000D03*
%TD*%
D11*
%TO.C,SW34*%
X68045000Y-84375000D03*
D12*
X73125000Y-84375000D03*
D11*
X78205000Y-84375000D03*
D12*
X68045000Y-80565000D03*
X73125000Y-80565000D03*
X78205000Y-80565000D03*
D13*
X73125000Y-89455000D03*
%TD*%
D10*
%TO.C,Ref\u002A\u002A*%
X214468800Y-36443122D03*
%TD*%
D11*
%TO.C,SW15*%
X126545000Y-48375000D03*
D12*
X131625000Y-48375000D03*
D11*
X136705000Y-48375000D03*
D12*
X126545000Y-44565000D03*
X131625000Y-44565000D03*
X136705000Y-44565000D03*
D13*
X131625000Y-53455000D03*
%TD*%
D11*
%TO.C,SW10*%
X36545000Y-48375000D03*
D12*
X41625000Y-48375000D03*
D11*
X46705000Y-48375000D03*
D12*
X36545000Y-44565000D03*
X41625000Y-44565000D03*
X46705000Y-44565000D03*
D13*
X41625000Y-53455000D03*
%TD*%
D11*
%TO.C,SW21*%
X20795000Y-66375000D03*
D12*
X25875000Y-66375000D03*
D11*
X30955000Y-66375000D03*
D12*
X20795000Y-62565000D03*
X25875000Y-62565000D03*
X30955000Y-62565000D03*
D13*
X25875000Y-71455000D03*
%TD*%
D10*
%TO.C,Ref\u002A\u002A*%
X30781200Y-18443119D03*
%TD*%
%TO.C,Ref\u002A\u002A*%
X84816200Y-115581878D03*
%TD*%
%TO.C,Ref\u002A\u002A*%
X30786200Y-115581878D03*
%TD*%
D11*
%TO.C,SW24*%
X77045000Y-66375000D03*
D12*
X82125000Y-66375000D03*
D11*
X87205000Y-66375000D03*
D12*
X77045000Y-62565000D03*
X82125000Y-62565000D03*
X87205000Y-62565000D03*
D13*
X82125000Y-71455000D03*
%TD*%
D11*
%TO.C,SW42*%
X214295000Y-84375000D03*
D12*
X219375000Y-84375000D03*
D11*
X224455000Y-84375000D03*
D12*
X214295000Y-80565000D03*
X219375000Y-80565000D03*
X224455000Y-80565000D03*
D13*
X219375000Y-89455000D03*
%TD*%
D14*
%TO.C,SW47*%
X91625000Y-99665000D03*
D10*
X91625000Y-108165000D03*
D11*
X126545000Y-102375000D03*
D12*
X131625000Y-102375000D03*
D11*
X136705000Y-102375000D03*
D14*
X171625000Y-99665000D03*
D10*
X171625000Y-108165000D03*
D12*
X126545000Y-98565000D03*
X131625000Y-98565000D03*
X136705000Y-98565000D03*
D13*
X131625000Y-107455000D03*
%TD*%
D10*
%TO.C,Ref\u002A\u002A*%
X214463800Y-115591881D03*
%TD*%
D11*
%TO.C,SW46*%
X72545000Y-102375000D03*
D12*
X77625000Y-102375000D03*
D11*
X82705000Y-102375000D03*
D12*
X72545000Y-98565000D03*
X77625000Y-98565000D03*
X82705000Y-98565000D03*
D13*
X77625000Y-107455000D03*
%TD*%
D11*
%TO.C,SW19*%
X198545000Y-48375000D03*
D12*
X203625000Y-48375000D03*
D11*
X208705000Y-48375000D03*
D12*
X198545000Y-44565000D03*
X203625000Y-44565000D03*
X208705000Y-44565000D03*
D13*
X203625000Y-53455000D03*
%TD*%
D11*
%TO.C,SW17*%
X162545000Y-48375000D03*
D12*
X167625000Y-48375000D03*
D11*
X172705000Y-48375000D03*
D12*
X162545000Y-44565000D03*
X167625000Y-44565000D03*
X172705000Y-44565000D03*
D13*
X167625000Y-53455000D03*
%TD*%
D11*
%TO.C,SW41*%
X194045000Y-84375000D03*
D12*
X199125000Y-84375000D03*
D11*
X204205000Y-84375000D03*
D12*
X194045000Y-80565000D03*
X199125000Y-80565000D03*
X204205000Y-80565000D03*
D13*
X199125000Y-89455000D03*
%TD*%
D11*
%TO.C,SW39*%
X158045000Y-84375000D03*
D12*
X163125000Y-84375000D03*
D11*
X168205000Y-84375000D03*
D12*
X158045000Y-80565000D03*
X163125000Y-80565000D03*
X168205000Y-80565000D03*
D13*
X163125000Y-89455000D03*
%TD*%
D10*
%TO.C,Ref\u002A\u002A*%
X169468800Y-36443122D03*
%TD*%
D11*
%TO.C,SW50*%
X216545000Y-102375000D03*
D12*
X221625000Y-102375000D03*
D11*
X226705000Y-102375000D03*
D12*
X216545000Y-98565000D03*
X221625000Y-98565000D03*
X226705000Y-98565000D03*
D13*
X221625000Y-107455000D03*
%TD*%
D11*
%TO.C,SW43*%
X18545000Y-102375000D03*
D12*
X23625000Y-102375000D03*
D11*
X28705000Y-102375000D03*
D12*
X18545000Y-98565000D03*
X23625000Y-98565000D03*
X28705000Y-98565000D03*
D13*
X23625000Y-107455000D03*
%TD*%
D11*
%TO.C,SW18*%
X180545000Y-48375000D03*
D12*
X185625000Y-48375000D03*
D11*
X190705000Y-48375000D03*
D12*
X180545000Y-44565000D03*
X185625000Y-44565000D03*
X190705000Y-44565000D03*
D13*
X185625000Y-53455000D03*
%TD*%
D11*
%TO.C,SW45*%
X54545000Y-102375000D03*
D12*
X59625000Y-102375000D03*
D11*
X64705000Y-102375000D03*
D12*
X54545000Y-98565000D03*
X59625000Y-98565000D03*
X64705000Y-98565000D03*
D13*
X59625000Y-107455000D03*
%TD*%
D11*
%TO.C,SW44*%
X36545000Y-102375000D03*
D12*
X41625000Y-102375000D03*
D11*
X46705000Y-102375000D03*
D12*
X36545000Y-98565000D03*
X41625000Y-98565000D03*
X46705000Y-98565000D03*
D13*
X41625000Y-107455000D03*
%TD*%
D11*
%TO.C,SW23*%
X59045000Y-66375000D03*
D12*
X64125000Y-66375000D03*
D11*
X69205000Y-66375000D03*
D12*
X59045000Y-62565000D03*
X64125000Y-62565000D03*
X69205000Y-62565000D03*
D13*
X64125000Y-71455000D03*
%TD*%
D11*
%TO.C,SW4*%
X45545000Y-30375000D03*
D12*
X50625000Y-30375000D03*
D11*
X55705000Y-30375000D03*
D12*
X45545000Y-26565000D03*
X50625000Y-26565000D03*
X55705000Y-26565000D03*
D13*
X50625000Y-35455000D03*
%TD*%
D11*
%TO.C,SW6*%
X81545000Y-30375000D03*
D12*
X86625000Y-30375000D03*
D11*
X91705000Y-30375000D03*
D12*
X81545000Y-26565000D03*
X86625000Y-26565000D03*
X91705000Y-26565000D03*
D13*
X86625000Y-35455000D03*
%TD*%
D15*
%TO.C,C6*%
X158460000Y-108120000D03*
X158460000Y-109670000D03*
%TD*%
D16*
%TO.C,D48*%
X225000000Y-104962500D03*
X225000000Y-106537500D03*
%TD*%
%TO.C,D43*%
X63000000Y-104962500D03*
X63000000Y-106537500D03*
%TD*%
%TO.C,D7*%
X27000000Y-50962500D03*
X27000000Y-52537500D03*
%TD*%
%TO.C,D24*%
X121500000Y-68962500D03*
X121500000Y-70537500D03*
%TD*%
%TO.C,D42*%
X45000000Y-104962500D03*
X45000000Y-106537500D03*
%TD*%
%TO.C,D1*%
X36000000Y-32962500D03*
X36000000Y-34537500D03*
%TD*%
D17*
%TO.C,C2*%
X152145000Y-110125000D03*
X150595000Y-110125000D03*
%TD*%
D16*
%TO.C,D27*%
X175500000Y-68962500D03*
X175500000Y-70537500D03*
%TD*%
%TO.C,D31*%
X58500000Y-86962500D03*
X58500000Y-88537500D03*
%TD*%
%TO.C,D11*%
X99000000Y-50962500D03*
X99000000Y-52537500D03*
%TD*%
%TO.C,D37*%
X166500000Y-86962500D03*
X166500000Y-88537500D03*
%TD*%
%TO.C,D2*%
X54000000Y-32962500D03*
X54000000Y-34537500D03*
%TD*%
%TO.C,D21*%
X67500000Y-68962500D03*
X67500000Y-70537500D03*
%TD*%
%TO.C,D9*%
X63000000Y-50962500D03*
X63000000Y-52537500D03*
%TD*%
%TO.C,D6*%
X126000000Y-32962500D03*
X126000000Y-34537500D03*
%TD*%
D18*
%TO.C,SW2*%
X101919799Y-106630701D03*
X95719801Y-106630701D03*
X101919799Y-110330699D03*
X95719801Y-110330699D03*
%TD*%
D16*
%TO.C,D38*%
X184500000Y-86962500D03*
X184500000Y-88537500D03*
%TD*%
%TO.C,D39*%
X202500000Y-86962500D03*
X202500000Y-88537500D03*
%TD*%
%TO.C,D17*%
X207000000Y-50962500D03*
X207000000Y-52537500D03*
%TD*%
%TO.C,D19*%
X29250000Y-68962500D03*
X29250000Y-70537500D03*
%TD*%
%TO.C,D25*%
X139500000Y-68962500D03*
X139500000Y-70537500D03*
%TD*%
D19*
%TO.C,C10*%
X114645200Y-110685700D03*
X114645200Y-109135700D03*
%TD*%
D16*
%TO.C,D30*%
X33750000Y-86962500D03*
X33750000Y-88537500D03*
%TD*%
D20*
%TO.C,U1*%
X156660000Y-108347500D03*
X156160000Y-108347500D03*
X155660000Y-108347500D03*
X155160000Y-108347500D03*
X154660000Y-108347500D03*
X154160000Y-108347500D03*
X153660000Y-108347500D03*
X153160000Y-108347500D03*
X152660000Y-108347500D03*
X152160000Y-108347500D03*
X151660000Y-108347500D03*
X151160000Y-108347500D03*
D21*
X149747500Y-106935000D03*
X149747500Y-106435000D03*
X149747500Y-105935000D03*
X149747500Y-105435000D03*
X149747500Y-104935000D03*
X149747500Y-104435000D03*
X149747500Y-103935000D03*
X149747500Y-103435000D03*
X149747500Y-102935000D03*
X149747500Y-102435000D03*
X149747500Y-101935000D03*
X149747500Y-101435000D03*
D20*
X151160000Y-100022500D03*
X151660000Y-100022500D03*
X152160000Y-100022500D03*
X152660000Y-100022500D03*
X153160000Y-100022500D03*
X153660000Y-100022500D03*
X154160000Y-100022500D03*
X154660000Y-100022500D03*
X155160000Y-100022500D03*
X155660000Y-100022500D03*
X156160000Y-100022500D03*
X156660000Y-100022500D03*
D21*
X158072500Y-101435000D03*
X158072500Y-101935000D03*
X158072500Y-102435000D03*
X158072500Y-102935000D03*
X158072500Y-103435000D03*
X158072500Y-103935000D03*
X158072500Y-104435000D03*
X158072500Y-104935000D03*
X158072500Y-105435000D03*
X158072500Y-105935000D03*
X158072500Y-106435000D03*
X158072500Y-106935000D03*
%TD*%
D16*
%TO.C,D4*%
X90000000Y-32962500D03*
X90000000Y-34537500D03*
%TD*%
%TO.C,D45*%
X135000000Y-104962500D03*
X135000000Y-106537500D03*
%TD*%
%TO.C,D12*%
X117000000Y-50962500D03*
X117000000Y-52537500D03*
%TD*%
%TO.C,D3*%
X72000000Y-32962500D03*
X72000000Y-34537500D03*
%TD*%
%TO.C,D14*%
X153000000Y-50962500D03*
X153000000Y-52537500D03*
%TD*%
%TO.C,D47*%
X207000000Y-104962500D03*
X207000000Y-106537500D03*
%TD*%
%TO.C,D10*%
X81000000Y-50962500D03*
X81000000Y-52537500D03*
%TD*%
D15*
%TO.C,C5*%
X159990000Y-108120000D03*
X159990000Y-109670000D03*
%TD*%
D16*
%TO.C,D29*%
X218250000Y-68962500D03*
X218250000Y-70537500D03*
%TD*%
D22*
%TO.C,C8*%
X126322500Y-64455000D03*
X127872500Y-64455000D03*
%TD*%
D18*
%TO.C,SW1*%
X112635199Y-106630701D03*
X106435201Y-106630701D03*
X112635199Y-110330699D03*
X106435201Y-110330699D03*
%TD*%
D23*
%TO.C,U3*%
X126390000Y-61375000D03*
X126390000Y-59475000D03*
X128665000Y-60425000D03*
%TD*%
D24*
%TO.C,J2*%
X120247500Y-59695000D03*
X120247500Y-54095000D03*
D25*
X124122500Y-58395000D03*
X124122500Y-57395000D03*
X124122500Y-56395000D03*
X124122500Y-55395000D03*
%TD*%
D16*
%TO.C,D5*%
X108000000Y-32962500D03*
X108000000Y-34537500D03*
%TD*%
D17*
%TO.C,C3*%
X149385000Y-100235000D03*
X147835000Y-100235000D03*
%TD*%
D16*
%TO.C,D18*%
X225000000Y-50962500D03*
X225000000Y-52537500D03*
%TD*%
%TO.C,D44*%
X81000000Y-104962500D03*
X81000000Y-106537500D03*
%TD*%
%TO.C,D20*%
X49500000Y-68962500D03*
X49500000Y-70537500D03*
%TD*%
%TO.C,D8*%
X45000000Y-50962500D03*
X45000000Y-52537500D03*
%TD*%
%TO.C,D40*%
X222750000Y-86962500D03*
X222750000Y-88537500D03*
%TD*%
D26*
%TO.C,U4*%
X129465000Y-55955000D03*
X129465000Y-56905000D03*
X129465000Y-57855000D03*
X127190000Y-57855000D03*
X127190000Y-56905000D03*
X127190000Y-55955000D03*
%TD*%
D16*
%TO.C,D46*%
X189000000Y-104962500D03*
X189000000Y-106537500D03*
%TD*%
D22*
%TO.C,C4*%
X157835000Y-99645000D03*
X159385000Y-99645000D03*
%TD*%
%TO.C,C7*%
X126322500Y-62925000D03*
X127872500Y-62925000D03*
%TD*%
D16*
%TO.C,D26*%
X157500000Y-68962500D03*
X157500000Y-70537500D03*
%TD*%
D17*
%TO.C,C9*%
X131902500Y-59205000D03*
X130352500Y-59205000D03*
%TD*%
D16*
%TO.C,D13*%
X135000000Y-50962500D03*
X135000000Y-52537500D03*
%TD*%
%TO.C,D32*%
X76500000Y-86962500D03*
X76500000Y-88537500D03*
%TD*%
%TO.C,D16*%
X189000000Y-50962500D03*
X189000000Y-52537500D03*
%TD*%
%TO.C,D33*%
X94500000Y-86962500D03*
X94500000Y-88537500D03*
%TD*%
%TO.C,D28*%
X193500000Y-68962500D03*
X193500000Y-70537500D03*
%TD*%
%TO.C,D41*%
X27000000Y-104962500D03*
X27000000Y-106537500D03*
%TD*%
%TO.C,D36*%
X148500000Y-86962500D03*
X148500000Y-88537500D03*
%TD*%
D27*
%TO.C,R1*%
X103929800Y-110725700D03*
X103929800Y-109075700D03*
%TD*%
D16*
%TO.C,D22*%
X85500000Y-68962500D03*
X85500000Y-70537500D03*
%TD*%
%TO.C,D15*%
X171000000Y-50962500D03*
X171000000Y-52537500D03*
%TD*%
%TO.C,D23*%
X103500000Y-68962500D03*
X103500000Y-70537500D03*
%TD*%
%TO.C,D34*%
X112500000Y-86962500D03*
X112500000Y-88537500D03*
%TD*%
%TO.C,D35*%
X130500000Y-86962500D03*
X130500000Y-88537500D03*
%TD*%
M02*
