M48
; DRILL file {KiCad 9.0.5} date 2026-03-30T21:36:02-0700
; FORMAT={-:-/ absolute / inch / decimal}
; #@! TF.CreationDate,2026-03-30T21:36:02-07:00
; #@! TF.GenerationSoftware,Kicad,Pcbnew,9.0.5
; #@! TF.FileFunction,Plated,1,2,PTH
FMAT,2
INCH
; #@! TA.AperFunction,Plated,PTH,ViaDrill
T1C0.0118
; #@! TA.AperFunction,Plated,PTH,ComponentDrill
T2C0.0571
; #@! TA.AperFunction,Plated,PTH,ComponentDrill
T3C0.1185
%
G90
G05
T1
X0.6618Y-4.2907
X1.0199Y-3.7908
X1.7257Y-3.7936
X2.4316Y-3.7963
X3.1141Y-3.8225
X3.6984Y-4.1738
X3.7661Y-4.1048
X3.914Y-3.0287
X3.914Y-3.5443
X4.1217Y-4.2522
X4.1952Y-3.4513
X4.5028Y-4.2482
X4.5104Y-4.1599
X4.5106Y-4.1048
X4.5736Y-3.4951
X4.9523Y-2.24
X4.9536Y-2.3053
X4.9835Y-2.5868
X5.5114Y-4.1463
X5.6864Y-2.7007
X5.7514Y-2.7007
X5.8201Y-4.4476
X5.8205Y-4.3426
X5.8358Y-3.5678
X5.861Y-4.3425
X5.8819Y-3.8974
X5.8882Y-4.3583
X5.9701Y-3.4939
X6.051Y-4.3785
X6.0663Y-3.4039
X6.1313Y-3.4039
X6.1906Y-4.3238
X6.3046Y-3.4513
X6.7732Y-4.0892
X7.174Y-4.1915
X7.3081Y-3.8022
X7.7272Y-4.24
X8.0167Y-3.8022
X8.428Y-4.2419
X8.7254Y-3.8022
X9.0264Y-3.8766
T2
X0.7301Y-1.7545
X0.7301Y-3.8805
X0.8187Y-2.4632
X0.9301Y-1.7545
X0.9301Y-2.1045
X0.9301Y-3.8805
X0.9301Y-4.2305
X0.9959Y-3.1719
X1.0187Y-2.4632
X1.0187Y-2.8132
X1.0844Y-1.0459
X1.1301Y-1.7545
X1.1301Y-3.8805
X1.1959Y-3.1719
X1.1959Y-3.5219
X1.2187Y-2.4632
X1.2844Y-1.0459
X1.2844Y-1.3959
X1.3959Y-3.1719
X1.4388Y-1.7545
X1.4388Y-3.8805
X1.4844Y-1.0459
X1.6159Y-2.4632
X1.6388Y-1.7545
X1.6388Y-2.1045
X1.6388Y-3.8805
X1.6388Y-4.2305
X1.7931Y-1.0459
X1.8159Y-2.4632
X1.8159Y-2.8132
X1.8388Y-1.7545
X1.8388Y-3.8805
X1.9703Y-3.1719
X1.9931Y-1.0459
X1.9931Y-1.3959
X2.0159Y-2.4632
X2.1474Y-1.7545
X2.1474Y-3.8805
X2.1703Y-3.1719
X2.1703Y-3.5219
X2.1931Y-1.0459
X2.3246Y-2.4632
X2.3474Y-1.7545
X2.3474Y-2.1045
X2.3474Y-3.8805
X2.3474Y-4.2305
X2.3703Y-3.1719
X2.5018Y-1.0459
X2.5246Y-2.4632
X2.5246Y-2.8132
X2.5474Y-1.7545
X2.5474Y-3.8805
X2.6789Y-3.1719
X2.7018Y-1.0459
X2.7018Y-1.3959
X2.7246Y-2.4632
X2.8561Y-1.7545
X2.8561Y-3.8805
X2.8789Y-3.1719
X2.8789Y-3.5219
X2.9018Y-1.0459
X3.0333Y-2.4632
X3.0561Y-1.7545
X3.0561Y-2.1045
X3.0561Y-3.8805
X3.0561Y-4.2305
X3.0789Y-3.1719
X3.2104Y-1.0459
X3.2333Y-2.4632
X3.2333Y-2.8132
X3.2561Y-1.7545
X3.2561Y-3.8805
X3.3876Y-3.1719
X3.4104Y-1.0459
X3.4104Y-1.3959
X3.4333Y-2.4632
X3.5648Y-1.7545
X3.5876Y-3.1719
X3.5876Y-3.5219
X3.6104Y-1.0459
X3.7419Y-2.4632
X3.7648Y-1.7545
X3.7648Y-2.1045
X3.7876Y-3.1719
X3.9191Y-1.0459
X3.9419Y-2.4632
X3.9419Y-2.8132
X3.9648Y-1.7545
X4.0963Y-3.1719
X4.1191Y-1.0459
X4.1191Y-1.3959
X4.1419Y-2.4632
X4.2734Y-1.7545
X4.2963Y-3.1719
X4.2963Y-3.5219
X4.3191Y-1.0459
X4.4506Y-2.4632
X4.4734Y-1.7545
X4.4734Y-2.1045
X4.4963Y-3.1719
X4.6278Y-1.0459
X4.6506Y-2.4632
X4.6506Y-2.8132
X4.6734Y-1.7545
X4.8049Y-3.1719
X4.8278Y-1.0459
X4.8278Y-1.3959
X4.8506Y-2.4632
X4.9821Y-1.7545
X4.9821Y-3.8805
X5.0049Y-3.1719
X5.0049Y-3.5219
X5.0278Y-1.0459
X5.1593Y-2.4632
X5.1821Y-1.7545
X5.1821Y-2.1045
X5.1821Y-3.8805
X5.1821Y-4.2305
X5.2049Y-3.1719
X5.3593Y-2.4632
X5.3593Y-2.8132
X5.3821Y-1.7545
X5.3821Y-3.8805
X5.5136Y-3.1719
X5.5593Y-2.4632
X5.6907Y-1.7545
X5.7136Y-3.1719
X5.7136Y-3.5219
X5.8679Y-2.4632
X5.8907Y-1.7545
X5.8907Y-2.1045
X5.9136Y-3.1719
X6.0679Y-2.4632
X6.0679Y-2.8132
X6.0907Y-1.7545
X6.2222Y-3.1719
X6.2679Y-2.4632
X6.3994Y-1.7545
X6.4222Y-3.1719
X6.4222Y-3.5219
X6.5766Y-2.4632
X6.5994Y-1.7545
X6.5994Y-2.1045
X6.6222Y-3.1719
X6.7766Y-2.4632
X6.7766Y-2.8132
X6.7994Y-1.7545
X6.9309Y-3.1719
X6.9766Y-2.4632
X7.1081Y-1.7545
X7.1081Y-3.8805
X7.1309Y-3.1719
X7.1309Y-3.5219
X7.2852Y-2.4632
X7.3081Y-1.7545
X7.3081Y-2.1045
X7.3081Y-3.8805
X7.3081Y-4.2305
X7.3309Y-3.1719
X7.4852Y-2.4632
X7.4852Y-2.8132
X7.5081Y-1.7545
X7.5081Y-3.8805
X7.6396Y-3.1719
X7.6852Y-2.4632
X7.8167Y-1.7545
X7.8167Y-3.8805
X7.8396Y-3.1719
X7.8396Y-3.5219
X8.0167Y-1.7545
X8.0167Y-2.1045
X8.0167Y-3.8805
X8.0167Y-4.2305
X8.0396Y-3.1719
X8.2167Y-1.7545
X8.2167Y-3.8805
X8.2596Y-2.4632
X8.4368Y-3.1719
X8.4596Y-2.4632
X8.4596Y-2.8132
X8.5254Y-1.7545
X8.5254Y-3.8805
X8.6368Y-3.1719
X8.6368Y-3.5219
X8.6596Y-2.4632
X8.7254Y-1.7545
X8.7254Y-2.1045
X8.7254Y-3.8805
X8.7254Y-4.2305
X8.8368Y-3.1719
X8.9254Y-1.7545
X8.9254Y-3.8805
T3
X1.2119Y-0.7261
X1.2121Y-4.5505
X3.3378Y-0.7261
X3.3392Y-4.5505
X6.672Y-1.4348
X6.6726Y-4.5505
X8.4435Y-4.5509
X8.4437Y-1.4348
M30
